<svg width="620" height="318" viewBox="0 0 620 318" fill="none" xmlns="http://www.w3.org/2000/svg">
            <path d="M55.6955 226.432C54.4249 227.12 53.3785 228.149 52.3737 229.169C51.3439 230.213 50.3723 231.3 49.4837 232.461C47.6982 234.791 46.1536 237.295 44.858 239.924C42.84 244.02 41.3867 248.448 40.6891 252.984C40.6725 252.677 40.656 252.37 40.6393 252.064C40.4483 248.647 40.249 245.231 40.0165 241.814C39.5681 235.338 38.9203 228.87 37.3507 222.56C36.4788 219.044 35.2746 215.76 33.5638 212.567C33.3728 212.211 32.7666 212.46 32.9078 212.841C35.0421 218.87 36.4372 225.139 37.2262 231.474C38.04 237.983 38.339 244.543 38.7708 251.085C38.8373 252.113 38.9037 253.142 38.9784 254.17C38.6712 253.283 38.3473 252.404 37.9819 251.541C35.9639 246.765 32.9991 242.378 28.9548 239.07C26.97 237.444 23.8807 235.04 21.2149 236.433C20.9492 236.574 21.0904 236.947 21.3561 236.963C24.0551 237.096 26.2475 238.622 28.1991 240.38C29.9596 241.964 31.4462 243.813 32.7085 245.82C35.449 250.173 37.1846 255.032 38.3722 260.016C38.721 261.492 39.0199 262.968 39.3023 264.461C39.6013 266.053 39.8587 267.637 40.4898 269.129C40.8054 269.892 41.8767 269.809 41.9515 268.93C42.0594 267.603 41.9432 266.244 41.7189 264.884C41.7272 264.693 41.7355 264.502 41.7272 264.311C41.7106 263.557 41.7023 262.811 41.7106 262.056C41.7106 260.679 41.7688 259.286 41.885 257.91C42.1176 255.107 42.566 252.321 43.2885 249.601C44.7252 244.161 47.1003 239.003 50.4055 234.434C51.3356 233.141 52.3239 231.88 53.3702 230.678C54.3834 229.5 55.5294 228.422 56.4346 227.154C56.7419 226.697 56.1273 226.2 55.6955 226.432Z" fill="#172B4D"></path>
            <path d="M68.5829 259.875V288.848H68.5746C68.5746 289.296 68.558 289.752 68.5331 290.192C68.5248 290.532 68.4998 290.863 68.4749 291.195C67.8189 299.247 63.8659 306.361 57.9698 311.204H21.2059C20.4751 310.607 19.7775 309.969 19.1049 309.297C14.2218 304.421 11.0661 297.812 10.6426 290.473C10.626 290.192 10.6177 289.91 10.6094 289.636C10.6011 289.379 10.5928 289.114 10.5928 288.856V259.883H68.5829V259.875Z" fill="#F05448"></path>
            <path d="M8.30125 229.285C2.56282 232.569 -1.19082 239.542 0.345522 245.969C1.96491 252.744 9.28121 257.371 16.2238 256.699C23.1664 256.027 29.1954 250.662 31.4709 244.087C33.1401 239.26 32.7249 231.308 27.7588 228.389C22.3442 225.197 13.4667 226.325 8.30125 229.285Z" fill="#173782"></path>
            <path d="M28.156 221.739C21.3215 219.002 16.2807 212.261 15.5915 204.939C14.9022 197.617 18.5977 190.054 24.801 186.099C31.0044 182.135 39.4251 181.961 45.7945 185.651C52.1557 189.349 56.1751 196.746 55.7931 204.085C55.7017 205.859 55.3695 207.625 54.7135 209.267C53.9495 211.158 52.7702 212.85 51.4166 214.375C45.7115 220.81 36.5684 225.114 28.156 221.739Z" fill="#173782"></path>
            <path d="M49.8068 224.426C47.9383 226.532 46.3521 229.02 45.9535 231.814C45.422 235.479 47.0331 239.203 49.5245 241.947C52.0075 244.692 55.2961 246.574 58.6263 248.191C61.7737 249.717 65.0789 251.061 68.5669 251.351C72.0548 251.641 75.7669 250.754 78.2832 248.324C80.5089 246.168 81.5719 242.992 81.522 239.891C81.4639 236.798 80.3677 233.788 78.7898 231.126C73.3835 222.038 58.1695 215.006 49.8068 224.426Z" fill="#173782"></path>
            <path d="M24.5695 236.35C24.5197 236.151 24.4366 235.961 24.3453 235.77C24.254 235.587 24.1294 235.422 23.9965 235.264C23.8055 235.04 23.5481 234.883 23.2741 234.791C23.1495 234.75 23.0083 234.725 22.8754 234.733C22.7675 234.733 22.6512 234.75 22.5516 234.775C22.4436 234.808 22.3274 234.849 22.236 234.907C21.6797 235.231 21.5053 235.902 21.4471 236.5C21.4388 236.574 21.4388 236.649 21.4471 236.723C21.4638 236.881 21.4721 237.047 21.5302 237.196C21.58 237.329 21.6298 237.47 21.7129 237.586C21.7876 237.702 21.879 237.818 21.9869 237.909C22.0866 238 22.2028 238.092 22.3191 238.15C22.4436 238.208 22.5765 238.274 22.7177 238.307C22.7426 238.316 22.7592 238.316 22.7841 238.316C22.7924 238.316 22.8007 238.324 22.8173 238.332C23.0665 238.415 23.3903 238.415 23.6394 238.332C23.9799 238.216 24.229 238.017 24.4283 237.718C24.6858 237.312 24.6775 236.79 24.5695 236.35Z" fill="#172B4D"></path>
            <path d="M36.4367 211.871C36.4284 211.83 36.4202 211.788 36.4035 211.755C36.362 211.631 36.3122 211.506 36.2457 211.39C36.1627 211.241 36.0548 211.1 35.9219 210.992C35.8223 210.909 35.7226 210.818 35.6064 210.76C35.4901 210.702 35.3656 210.644 35.2327 210.611C35.1082 210.578 34.967 210.569 34.8424 210.553C34.8009 210.553 34.7594 210.544 34.7179 210.553C34.585 210.561 34.4522 210.578 34.3193 210.611C34.2363 210.627 34.1532 210.669 34.0702 210.702C33.9955 210.735 33.9124 210.76 33.8377 210.81C33.7297 210.876 33.6218 210.967 33.5222 211.05C33.4889 211.075 33.464 211.1 33.4391 211.133C33.3644 211.224 33.2648 211.332 33.2066 211.448C33.1485 211.564 33.0904 211.689 33.0571 211.813C33.0488 211.83 33.0489 211.855 33.0406 211.871C33.0239 211.987 32.999 212.112 32.9907 212.228C32.9907 212.244 32.9907 212.269 32.9907 212.286C32.999 212.402 33.0156 212.526 33.0406 212.634C33.0489 212.684 33.0655 212.725 33.0821 212.767C33.1319 212.891 33.1734 213.024 33.2481 213.132C33.3229 213.248 33.4059 213.356 33.5055 213.455C33.5304 213.48 33.5637 213.496 33.5886 213.521C33.6052 213.546 33.6301 213.571 33.6384 213.588C33.8045 213.795 34.0868 213.944 34.3359 214.011C34.6099 214.085 34.9255 214.085 35.2078 214.002C35.4984 213.919 35.706 213.787 35.9302 213.588C36.0299 213.505 36.0963 213.389 36.1793 213.289C36.2042 213.256 36.2291 213.223 36.2457 213.181C36.3205 213.032 36.3952 212.866 36.4201 212.7C36.4367 212.584 36.47 212.427 36.47 212.294C36.4866 212.137 36.4617 212.004 36.4367 211.871Z" fill="#172B4D"></path>
            <path d="M55.554 228.696C55.5374 228.597 55.5124 228.497 55.4709 228.398C55.4211 228.282 55.3713 228.116 55.2883 228C55.2218 227.909 55.1471 227.809 55.0723 227.726C55.0557 227.71 55.0391 227.685 55.0225 227.668C54.9229 227.577 54.8149 227.486 54.6904 227.428C54.4412 227.303 54.2585 227.253 53.9845 227.237C53.7022 227.22 53.3451 227.32 53.1126 227.486C52.988 227.569 52.8635 227.66 52.7555 227.776C52.6476 227.892 52.5479 228.025 52.4649 228.157C52.332 228.356 52.2407 228.589 52.1576 228.804C52.0995 228.97 52.0829 229.144 52.0663 229.318C52.058 229.393 52.058 229.459 52.0663 229.534C52.0829 229.683 52.0912 229.857 52.1493 230.007C52.2075 230.156 52.2573 230.322 52.3487 230.454C52.4234 230.554 52.4981 230.662 52.5812 230.761C52.6393 230.819 52.7057 230.869 52.7721 230.919C52.8303 230.968 52.8967 231.026 52.9715 231.068C53.0877 231.126 53.2206 231.184 53.3368 231.225C53.4946 231.275 53.669 231.3 53.8351 231.284C53.9264 231.275 54.1257 231.259 54.2503 231.217C54.2752 231.209 54.3001 231.192 54.3167 231.184H54.325C54.4745 231.159 54.6156 231.093 54.7485 231.018C54.8481 230.96 54.9478 230.877 55.0308 230.803C55.0557 230.786 55.0723 230.761 55.0972 230.745C55.1886 230.637 55.2882 230.521 55.3547 230.396C55.4211 230.264 55.4875 230.114 55.5291 229.965C55.5623 229.816 55.5789 229.658 55.5955 229.509C55.6038 229.451 55.6038 229.393 55.6038 229.335C55.6121 229.103 55.5789 228.895 55.554 228.696Z" fill="#172B4D"></path>
            <path d="M39.6098 254.012C38.4306 255.812 37.8908 258.001 37.9407 260.157C37.9739 261.409 38.2064 262.678 38.7794 263.797C39.6348 265.464 41.1794 266.666 42.7822 267.645C44.6757 268.806 46.7435 269.743 48.9525 270C51.1532 270.257 53.5118 269.768 55.2059 268.341C56.5595 267.205 57.3983 265.572 57.963 263.905C58.7519 261.558 59.0592 258.988 58.453 256.583C56.435 248.49 43.9781 247.362 39.6098 254.012Z" fill="#173782"></path>
            <path d="M47.4814 255.132C47.4731 255.107 47.4731 255.09 47.4648 255.065C47.4233 254.957 47.3817 254.85 47.3319 254.75C47.3236 254.725 47.307 254.709 47.2987 254.692C47.2405 254.601 47.1658 254.51 47.0994 254.427C47.0827 254.41 47.0661 254.394 47.0495 254.377C46.9665 254.302 46.8751 254.236 46.792 254.17C46.7754 254.153 46.7505 254.145 46.7339 254.128C46.6342 254.07 46.5262 254.037 46.4183 253.996C46.4016 253.987 46.3767 253.979 46.3518 253.979C46.2937 253.971 46.2272 253.962 46.1691 253.954C46.1192 253.946 46.0528 253.937 45.9947 253.929C45.9199 253.929 45.8452 253.946 45.7787 253.954C45.7123 253.962 45.6375 253.971 45.5711 253.987C45.5545 253.987 45.5462 253.996 45.5295 254.004C45.4299 254.037 45.3385 254.078 45.2388 254.128C45.2139 254.137 45.1973 254.145 45.1807 254.161C45.081 254.219 44.9897 254.302 44.9066 254.369C44.89 254.385 44.8651 254.402 44.8484 254.418C44.7737 254.501 44.7072 254.593 44.6408 254.684C44.6242 254.7 44.6159 254.725 44.5993 254.75C44.591 254.758 44.591 254.767 44.5827 254.783C44.5411 254.874 44.4996 254.974 44.4581 255.073C44.4498 255.09 44.4498 255.115 44.4415 255.132C44.4332 255.148 44.4331 255.165 44.4248 255.181C44.4248 255.19 44.4249 255.198 44.4166 255.214C44.4166 255.223 44.4166 255.231 44.4166 255.239C44.4083 255.289 44.3999 255.339 44.3999 255.397C44.3916 255.447 44.3833 255.496 44.3833 255.538C44.3833 255.554 44.3833 255.579 44.3833 255.596C44.3916 255.695 44.4082 255.811 44.4248 255.911C44.4248 255.919 44.4248 255.928 44.4331 255.944C44.4498 256.01 44.483 256.077 44.5079 256.127C44.5328 256.185 44.5577 256.251 44.5909 256.309C44.5993 256.317 44.5993 256.326 44.6076 256.334C44.6657 256.417 44.7322 256.5 44.7903 256.574C44.8069 256.591 44.8152 256.607 44.8319 256.616C44.8817 256.657 44.9315 256.699 44.9813 256.732C45.0312 256.773 45.0893 256.815 45.1391 256.848C45.1558 256.856 45.1724 256.864 45.189 256.873C45.2887 256.923 45.3966 256.964 45.5046 257.005C45.5877 257.03 45.679 257.039 45.7621 257.055C45.8535 257.063 45.9365 257.088 46.0279 257.08C46.1442 257.072 46.2605 257.055 46.3685 257.03C46.3851 257.03 46.41 257.022 46.4266 257.014C46.5345 256.981 46.6342 256.931 46.7339 256.881C46.7505 256.873 46.7671 256.864 46.7837 256.848C46.7921 256.84 46.8003 256.84 46.8086 256.831C46.8917 256.773 46.9748 256.707 47.0495 256.641C47.0661 256.624 47.0744 256.616 47.091 256.599C47.1575 256.525 47.224 256.433 47.2821 256.359C47.2904 256.35 47.2904 256.342 47.2987 256.334C47.3402 256.276 47.3568 256.201 47.3817 256.143C47.4067 256.085 47.4399 256.019 47.4565 255.961C47.4731 255.894 47.4814 255.82 47.4898 255.753C47.5064 255.662 47.523 255.571 47.5063 255.48C47.523 255.372 47.5064 255.248 47.4814 255.132Z" fill="#172B4D"></path>
            <path d="M68.5829 274.271V275.183C67.5282 275.141 66.4736 275.108 65.4189 275.067C54.3407 274.677 43.2543 274.47 32.1678 274.445C26.6204 274.428 21.0813 274.47 15.5339 274.544C13.8896 274.561 12.2454 274.594 10.5928 274.636V273.856C12.918 273.79 15.2433 273.748 17.5685 273.699C28.6467 273.499 39.7415 273.541 50.8279 273.757C56.367 273.864 61.9061 274.014 67.4452 274.221C67.8272 274.238 68.2009 274.254 68.5829 274.271Z" fill="#FED5CF"></path>
            <path d="M68.5838 280.589V281.501C68.2184 281.518 67.853 281.526 67.4876 281.542C54.8565 282.023 42.2254 282.629 29.6026 283.359C23.2663 283.715 16.9301 284.105 10.6021 284.528V283.773C11.3328 283.715 12.0636 283.665 12.7944 283.607C25.4089 282.712 38.04 281.965 50.6628 281.36C56.6337 281.07 62.6129 280.804 68.5838 280.589Z" fill="#FED5CF"></path>
            <path d="M68.5335 290.192C68.5252 290.532 68.5003 290.864 68.4754 291.195C56.9072 291.245 45.3391 291.179 33.771 290.996C27.8167 290.905 21.8541 290.772 15.8998 290.615C14.1475 290.565 12.3953 290.524 10.6431 290.474C10.6265 290.192 10.6182 289.91 10.6099 289.636C13.1012 289.686 15.5926 289.753 18.0922 289.802C29.951 290.043 41.8097 290.192 53.6685 290.217C58.618 290.225 63.5757 290.225 68.5335 290.192Z" fill="#FED5CF"></path>
            <path d="M75.7966 193.121C73.8921 190.632 71.3643 188.442 69.8292 185.768C68.0286 182.645 68.2363 178.668 68.9289 175.164C69.2982 173.309 69.8638 171.511 70.6025 169.771C71.422 167.869 72.5301 166.163 73.5343 164.365C74.6539 162.36 75.4157 160.216 75.2426 157.888C75.1618 156.758 73.7305 152.724 71.9068 154.073C71.2604 154.557 71.4451 155.191 71.4567 155.871C71.4682 156.701 71.2951 157.715 71.0411 158.51C70.4871 160.262 69.4021 161.806 68.4441 163.351C66.2857 166.82 64.6928 170.508 63.8618 174.531C63.0307 178.553 62.8576 183.036 64.5659 186.863C65.8932 189.825 68.0747 192.28 70.2563 194.631C71.4913 195.956 72.8187 197.259 73.9614 198.642C74.954 199.852 75.7043 201.154 76.5353 202.48C77.0894 203.367 78.2667 202.814 78.4975 202.007C78.7168 201.224 78.7399 200.532 78.6245 199.725C78.5091 198.895 78.5091 198.146 78.1743 197.339C77.5857 195.83 76.8123 194.435 75.7966 193.121Z" fill="#FED5CF"></path>
            <path d="M86.4621 148.034C85.7234 146.305 84.9269 144.576 84.0613 142.916C83.161 141.187 82.3068 139.516 80.991 138.076C80.3908 137.43 79.1211 137.303 78.7633 138.318C78.5094 139.032 78.4286 139.678 78.4055 140.392C78.0708 141.925 78.7518 143.746 79.3174 145.152C79.9291 146.674 80.7486 148.126 81.4065 149.624C82.6069 152.356 83.4149 155.041 82.8493 157.969C81.7528 163.639 77.2744 168.134 75.4853 173.62C74.9197 175.372 74.5504 177.17 74.7812 179.026C74.9659 180.512 75.8893 182.91 77.4821 183.405C78.2324 183.636 79.3289 183.348 79.3866 182.379C79.4328 181.665 79.1442 181.077 79.1096 180.374C79.075 179.763 79.0865 179.083 79.1558 178.472C79.3174 177.009 79.756 175.66 80.3677 174.323C81.6374 171.569 83.2879 169.044 84.7884 166.417C86.2889 163.8 87.6279 161 88.0665 157.992C88.5743 154.569 87.801 151.18 86.4621 148.034Z" fill="#FED5CF"></path>
            <path d="M615.669 312.384C603.665 311.738 591.51 311.808 579.46 311.808C567.826 311.796 556.179 311.796 544.545 311.784C520.837 311.773 497.129 311.761 473.421 311.75C419.587 311.727 365.765 311.715 311.931 311.715C311.25 311.715 310.569 311.715 309.888 311.715C309.207 311.715 308.526 311.715 307.845 311.715C254.012 311.715 200.189 311.715 146.356 311.75C122.648 311.761 98.9398 311.773 75.2317 311.784C63.597 311.796 51.9508 311.796 40.3161 311.808C28.2658 311.819 16.1117 311.738 4.10764 312.384C-1.36344 312.683 -1.37498 316.821 4.10764 317.109C25.0455 318.238 46.4451 317.685 67.4753 317.697C88.5978 317.708 109.72 317.72 130.831 317.731C173.076 317.754 215.31 317.766 257.555 317.766H307.568H312.197H362.21C404.455 317.766 446.688 317.754 488.933 317.731C510.056 317.72 531.179 317.708 552.29 317.697C573.308 317.685 594.708 318.238 615.657 317.109C621.151 316.821 621.14 312.683 615.669 312.384Z" fill="#DADCE0"></path>
            <path d="M358.735 308.972V311.589H261.063V308.972C261.063 308.972 281.47 305.595 281.92 288.146C282.105 281.277 282.116 273.624 282.082 267.273C282.047 259.528 281.92 253.742 281.92 253.742H337.889C337.889 253.742 337.566 269.463 337.797 283.766C337.82 285.241 337.854 286.705 337.889 288.134C338.339 305.607 358.735 308.972 358.735 308.972Z" fill="#A5ADBA"></path>
            <path d="M337.798 283.778C323.797 271.526 293.429 268.138 282.083 267.273C282.048 259.528 281.921 253.742 281.921 253.742H337.89C337.89 253.754 337.555 269.475 337.798 283.778Z" fill="#8993A4"></path>
            <path d="M481.154 39H138.646C135.518 39 132.99 41.5125 132.99 44.6359V229.319V238.92V255.044C132.99 258.167 135.518 260.691 138.646 260.691H481.154C484.282 260.691 486.798 258.167 486.798 255.044V238.92V229.319V44.6359C486.798 41.5125 484.282 39 481.154 39Z" fill="#253858"></path>
            <path d="M309.911 50.5142H144.532V149.84H309.911V50.5142Z" fill="#FED5CF"></path>
            <path d="M475.267 50.5142H309.899V149.84H475.267V50.5142Z" fill="white"></path>
            <path d="M309.911 149.84H144.532V249.166H309.911V149.84Z" fill="white"></path>
            <path d="M475.267 149.84H309.899V249.166H475.267V149.84Z" fill="#FED5CF"></path>
            <path d="M363.537 308.983H256.263V314.204H363.537V308.983Z" fill="#253858"></path>
            <path d="M282.867 249.167H163.831C167.27 242.229 175.188 226.911 181.271 219.984C182.183 218.947 183.049 218.094 183.857 217.495C185.853 216.008 189.432 214.694 193.645 213.565C193.933 213.484 194.222 213.415 194.51 213.334C200.859 211.698 208.488 210.464 214.421 209.646H214.432C216.972 209.289 219.222 209.024 220.908 208.816C221.104 208.793 221.312 208.77 221.485 208.747C221.831 208.724 222.154 208.678 222.443 208.643V208.448C222.443 208.448 222.766 208.471 223.355 208.551C223.932 208.482 224.266 208.448 224.266 208.448L224.278 208.643C226.09 208.839 229.126 209.197 232.739 209.704C238.163 210.464 244.893 211.559 250.768 212.977C251.149 213.069 251.53 213.161 251.899 213.254C256.62 214.464 260.671 215.87 262.853 217.495C266.038 219.869 270.194 226.07 274.026 232.628C277.627 238.805 280.951 245.294 282.867 249.167Z" fill="#173782"></path>
            <path d="M168.921 206.799C168.391 203.065 168.506 199.158 168.356 195.377C168.298 194.075 168.252 192.75 168.552 191.482C168.979 189.718 170.307 188.139 172.038 187.529C173.215 187.114 174.012 187.505 175.143 187.598C176.459 187.713 177.855 177.375 178.721 176.026C179.379 175.012 180.106 175.507 180.579 175.888C180.695 175.98 180.776 176.118 180.833 176.257C181.064 176.787 181.053 177.386 181.041 177.962C180.949 182.307 180.475 186.63 179.644 190.894C180.037 188.889 183.788 177.467 184.157 177.075C184.85 176.326 185.947 176.741 186.224 177.605C186.501 178.481 184.746 189.419 184.665 190.318C184.608 190.929 184.458 193.049 184.054 193.476C185.208 192.219 186.339 190.952 187.47 189.695C187.955 189.154 188.486 188.577 189.202 188.335C189.548 188.22 189.952 188.22 190.298 188.324C190.817 188.497 191.048 189.119 190.841 189.626C189.813 192.104 188.359 194.19 187.101 196.599C185.139 200.31 183.269 206.188 180.637 209.669C179.898 210.706 169.141 208.355 168.921 206.799Z" fill="#FFB69E"></path>
            <path d="M173.088 199.504C174.75 200.645 175.951 202.454 176.332 204.436C176.736 202.592 177.151 200.737 177.959 199.043C178.767 197.348 180.014 195.781 181.71 194.951C180.048 194.917 178.409 194.156 177.313 192.9C177.347 194.444 176.078 195.47 174.796 196.046C174.058 196.38 173.296 196.403 172.499 196.3C172.269 196.277 170.168 195.954 170.156 195.769C170.226 197.579 171.761 198.593 173.088 199.504Z" fill="#F68A73"></path>
            <path d="M289.55 216.688V249.167H270.505L274.025 232.616L276.565 220.676L277.407 216.688H289.55Z" fill="#FFB69E"></path>
            <path d="M272.71 196.207L272.872 199.262L272.883 199.411C272.583 199.238 272.271 199.1 271.925 199.02C270.875 198.777 269.744 198.789 268.716 199.169C267.747 199.538 266.824 200.126 266.154 200.956C265.369 201.924 264.931 203.042 264.769 204.287C264.48 206.569 265.369 208.874 266.627 210.729C267.885 212.62 269.548 214.325 271.671 215.178C272.329 215.443 273.045 215.593 273.749 215.616L273.772 216.02L274.037 220.676H291.039L291.259 216.688L292.124 200.921V200.91L292.378 196.23C292.39 196.207 292.39 196.207 292.39 196.207H272.71ZM273.61 213.173C273.587 213.161 273.587 213.161 273.564 213.15C273.333 213.092 273.091 213.046 272.86 212.965C272.802 212.942 272.722 212.919 272.652 212.896C272.652 212.885 272.479 212.827 272.456 212.816C272.26 212.723 272.075 212.62 271.891 212.504C271.706 212.401 271.533 212.274 271.36 212.147C271.29 212.101 271.21 212.055 271.163 211.997C271.14 211.974 270.956 211.824 270.933 211.801C270.632 211.536 270.332 211.26 270.055 210.971C269.894 210.81 269.732 210.637 269.582 210.464C269.513 210.372 269.432 210.291 269.374 210.199C269.317 210.142 269.271 210.096 269.224 210.026C269.213 210.015 269.201 210.015 269.201 210.003C268.647 209.243 268.151 208.447 267.758 207.595C267.747 207.548 267.735 207.502 267.724 207.479C267.689 207.399 267.655 207.306 267.62 207.214C267.551 206.995 267.47 206.776 267.412 206.557C267.354 206.35 267.297 206.119 267.262 205.9C267.251 205.877 267.239 205.739 267.228 205.681C267.228 205.566 267.216 205.439 267.204 205.312C267.193 205.082 267.193 204.851 267.216 204.621C267.216 204.54 267.228 204.448 267.228 204.367C267.251 204.321 267.262 204.171 267.274 204.148C267.32 203.918 267.378 203.699 267.458 203.491C267.481 203.445 267.493 203.388 267.516 203.342C267.528 203.342 267.631 203.1 267.655 203.065C267.747 202.881 267.851 202.731 267.966 202.569C267.978 202.546 267.978 202.546 267.989 202.535C268.001 202.512 268.012 202.512 268.024 202.5C268.093 202.431 268.151 202.35 268.22 202.281C268.359 202.131 268.497 202.005 268.647 201.866C268.67 201.855 268.751 201.786 268.797 201.763C268.878 201.693 268.959 201.659 269.04 201.601C269.213 201.498 269.397 201.394 269.571 201.325C269.594 201.302 269.721 201.255 269.732 201.255C269.825 201.221 269.928 201.186 270.009 201.163C270.217 201.106 270.425 201.06 270.644 201.025C270.667 201.025 270.84 201.002 270.84 201.002C270.99 200.99 271.117 200.99 271.256 200.99C271.36 201.002 271.464 201.013 271.579 201.013C271.602 201.013 271.637 201.025 271.648 201.025C271.671 201.025 271.683 201.036 271.683 201.025C271.787 201.048 271.879 201.048 271.983 201.071C272.202 201.094 272.295 201.094 272.56 201.163C272.71 201.198 272.849 201.267 273.01 201.313L273.056 202.362L273.599 212.251L273.657 213.196H273.61V213.173Z" fill="#DFE1E5"></path>
            <path d="M288.626 202.788C287.645 204.102 287.264 205.762 286.987 207.376C286.583 209.692 286.352 212.205 287.472 214.268C288.591 216.331 291.581 217.518 293.393 216.02C294.305 215.271 294.709 214.06 294.986 212.908C295.586 210.487 295.886 207.986 295.874 205.485C295.874 201.325 291.419 199.066 288.626 202.788Z" fill="#FFB69E"></path>
            <path d="M279.267 188.094C278.92 187.61 278.689 187.056 278.574 186.469C278.32 185.074 279.059 183.968 279.463 182.688C279.832 181.524 279.936 180.268 279.786 179.058C279.659 178.009 279.382 176.476 278.516 175.784C278.343 175.646 278.112 175.773 278.147 176.003C278.251 176.683 278.643 177.294 278.828 177.963C279.013 178.608 279.117 179.265 279.128 179.934C279.151 180.66 279.07 181.386 278.886 182.089C278.701 182.792 278.389 183.437 278.135 184.117C277.708 185.247 277.697 186.434 278.182 187.552C278.401 188.059 278.724 188.578 279.151 188.958C279.22 189.016 279.809 189.454 279.878 189.142C279.971 188.693 279.497 188.416 279.267 188.094Z" fill="#DFE1E5"></path>
            <path d="M283.663 180.648C283.513 179.207 283.074 177.836 282.693 176.441C282.289 174.989 282.012 173.537 282.093 172.015C282.139 171.289 282.255 170.575 282.439 169.883C282.624 169.203 283.028 168.512 283.097 167.82C283.132 167.532 282.728 167.405 282.543 167.59C282.105 168.016 281.874 168.811 281.701 169.387C281.493 170.056 281.366 170.747 281.285 171.451C281.124 172.88 281.274 174.297 281.62 175.692C281.978 177.133 282.497 178.539 282.786 180.002C282.924 180.705 282.993 181.42 282.97 182.146C282.947 182.884 282.705 183.575 282.659 184.29C282.647 184.44 282.855 184.509 282.947 184.405C283.813 183.506 283.79 181.8 283.663 180.648Z" fill="#DFE1E5"></path>
            <path d="M287.472 182.319C287.206 180.671 286.941 179.034 286.687 177.386C286.583 176.683 286.491 175.969 286.491 175.254C286.491 174.874 286.525 174.493 286.606 174.125C286.687 173.767 286.883 173.433 286.941 173.076C286.952 172.984 286.86 172.88 286.768 172.949C286.295 173.283 286.087 174.032 285.994 174.574C285.868 175.266 285.902 175.98 285.983 176.672C286.168 178.343 286.479 180.003 286.733 181.662C286.872 182.55 287.056 183.449 287.102 184.336C287.149 185.143 286.964 185.869 286.664 186.607C286.179 187.782 285.279 189.211 285.787 190.525C285.868 190.733 286.168 190.71 286.179 190.468C286.214 189.764 286.318 189.154 286.56 188.485C286.802 187.851 287.114 187.24 287.356 186.607C287.899 185.177 287.714 183.817 287.472 182.319Z" fill="#DFE1E5"></path>
            <path d="M213.463 239.186C213.243 242.62 212.308 245.917 211.235 249.155H210.104C211.408 245.283 212.551 241.341 212.447 237.226C212.389 234.61 211.812 231.902 210.323 229.723C209.665 228.755 208.799 227.902 207.726 227.361C206.676 226.819 205.475 226.658 204.298 226.658C201.978 226.635 199.623 227.176 197.338 226.646C195.122 226.139 193.598 224.445 193.067 222.278C192.49 219.915 192.871 217.38 193.333 215.028C193.425 214.533 193.529 214.037 193.656 213.565C193.944 213.484 194.233 213.415 194.521 213.334C194.291 214.348 194.071 215.397 193.921 216.423C193.563 218.866 193.263 221.921 194.856 224.018C196.322 225.955 198.838 225.989 201.031 225.839C203.294 225.701 205.683 225.378 207.818 226.289C212.585 228.34 213.763 234.587 213.463 239.186Z" fill="#122B66"></path>
            <path d="M251.899 213.242C251.264 215.052 250.606 216.861 249.821 218.602C249.083 220.227 248.032 221.955 246.359 222.762C244.293 223.765 242.307 222.877 240.276 222.301C239.214 222.002 238.175 221.909 237.113 222.255C236.109 222.578 235.22 223.2 234.424 223.869C232.704 225.298 231.238 227.015 229.172 227.96C227.187 228.871 224.947 228.836 223.308 227.257C221.785 225.793 221 223.557 220.469 221.564C219.315 217.299 219.523 212.931 220.908 208.793C221.035 208.402 221.173 208.021 221.323 207.641C221.439 207.341 221.923 207.468 221.819 207.768C221.704 208.09 221.6 208.402 221.496 208.724C220.065 213.265 220.284 218.383 221.935 222.808C222.593 224.56 223.574 226.762 225.548 227.338C227.637 227.937 229.772 226.462 231.25 225.148C232.75 223.823 234.135 222.278 235.982 221.425C236.871 221.022 237.829 220.78 238.798 220.826C239.826 220.872 240.807 221.206 241.776 221.517C242.757 221.829 243.796 222.174 244.835 222.013C245.666 221.886 246.382 221.448 246.97 220.861C248.275 219.57 248.956 217.783 249.591 216.101C249.983 215.052 250.364 214.014 250.745 212.966C251.149 213.069 251.53 213.15 251.899 213.242Z" fill="#122B66"></path>
            <path d="M263.604 249.167H261.849C261.665 248.936 261.457 248.717 261.226 248.544C260.199 247.737 258.941 247.461 258.214 246.297C256.725 243.876 257.937 240.707 258.098 238.114C258.248 235.809 257.579 233.262 255.016 232.743C252.512 232.247 249.695 233.446 247.583 234.679C243.139 237.296 239.434 241.41 236.791 245.79C236.133 246.885 235.533 248.014 235.002 249.167H233.559C234.471 247.046 235.591 245.006 236.906 243.081C238.465 240.811 240.254 238.713 242.285 236.858C244.409 234.91 246.764 233.193 249.441 232.121C251.808 231.164 255.016 230.473 257.29 232.017C259.656 233.619 259.91 236.708 259.576 239.301C259.379 240.834 259.01 242.378 259.125 243.934C259.172 244.51 259.322 245.144 259.656 245.617C260.06 246.158 260.695 246.412 261.261 246.746C262.3 247.346 263.073 248.187 263.604 249.167Z" fill="#122B66"></path>
            <path d="M196.011 246.112C195.861 247.138 195.699 248.152 195.503 249.166H193.968C194.187 248.048 194.395 246.93 194.58 245.789C195.065 242.747 195.215 239.082 192.687 236.846C191.429 235.739 189.79 235.163 188.185 234.829C186.546 234.471 184.861 234.402 183.187 234.552C182.345 234.633 181.514 234.783 180.729 234.99C178.316 235.613 176.112 236.754 174.023 238.183C173.665 238.425 173.272 237.895 173.561 237.606C175.489 235.67 178.086 234.437 180.775 233.803C181.952 233.526 183.141 233.354 184.295 233.319C187.643 233.169 191.706 233.884 194.118 236.396C196.611 238.966 196.496 242.793 196.011 246.112Z" fill="#122B66"></path>
            <path d="M214.351 209.553C214.351 209.553 222.223 217.24 232.761 209.957L232.011 203.272L231.353 197.06L215.378 198.42L214.894 203.629L214.351 209.553Z" fill="#FFB69E"></path>
            <path d="M214.905 203.641C217.156 204.621 219.857 205.208 223.077 205.208C226.679 205.208 229.622 204.482 232.023 203.284L231.365 197.071L215.39 198.431L214.905 203.641Z" fill="#F68A73"></path>
            <path d="M204.206 161.665C205.625 159.741 207.622 158.323 209.723 157.205C210.912 156.571 212.193 156.018 213.532 155.972C219.245 155.788 224.266 152.941 230.072 153.448C231.376 153.563 232.819 153.897 233.546 154.992C233.696 155.223 233.823 155.488 234.043 155.649C234.285 155.822 234.597 155.845 234.897 155.88C237.263 156.122 239.41 157.505 240.818 159.395C242.249 161.331 242.122 163.279 242.78 165.434C243.265 167.025 244.373 168.373 244.442 170.229C244.511 172.257 243.138 173.617 242.353 175.381C241.545 177.179 242.526 178.815 241.857 180.613C241.326 182.042 239.641 182.999 238.417 183.748C236.686 184.808 234.874 185.892 232.854 186.065C231.469 186.192 230.072 185.869 228.733 185.488C226.136 184.751 223.62 183.794 221.115 182.803C219.43 182.135 217.71 181.432 215.91 181.339C213.336 181.201 210.692 182.284 208.211 181.547C206.618 181.074 205.314 179.876 204.437 178.47C203.571 177.052 203.109 175.427 202.809 173.802C202.07 169.872 201.713 165.065 204.206 161.665Z" fill="#262D4F"></path>
            <path d="M239.421 179.588C239.421 179.588 242.11 176.787 243.899 178.585C245.688 180.371 244.234 189.776 238.071 189.557L239.421 179.588Z" fill="#FFB69E"></path>
            <path d="M207.495 179.588C207.495 179.588 204.806 176.787 203.017 178.585C201.228 180.371 202.682 189.776 208.846 189.557L207.495 179.588Z" fill="#FFB69E"></path>
            <path d="M207.368 185.638C208.707 192.807 212.527 202.201 223.504 202.201C234.481 202.201 238.29 192.807 239.641 185.638C240.529 180.959 239.629 173.249 238.902 168.489C238.89 168.477 238.89 168.443 238.89 168.42C238.071 164.812 235.451 163.925 233.223 163.878C231.526 163.832 229.887 164.432 228.248 164.916C225.42 165.746 222.396 166.218 219.534 165.504C218.102 165.158 216.729 164.512 215.263 164.409C213.382 164.27 210.565 164.305 209.353 165.746C208.199 167.129 208.072 169.272 207.576 172.292C207.576 172.304 207.576 172.304 207.564 172.304C207.056 176.741 206.699 182.054 207.368 185.638Z" fill="#FFB69E"></path>
            <path d="M227.89 174.066C228.432 173.029 229.956 172.995 230.983 172.971C232.241 172.937 233.488 173.179 234.596 173.847C235.242 174.239 234.85 175.449 234.1 175.3C233.026 175.069 231.976 174.792 230.879 174.873C229.956 174.942 229.125 175.472 228.213 175.15C227.775 174.977 227.694 174.458 227.89 174.066Z" fill="#1C2139"></path>
            <path d="M220.677 174.159C220.158 173.144 218.635 173.052 217.619 172.983C216.361 172.902 215.114 173.075 213.995 173.674C213.337 174.02 213.706 175.196 214.456 175.081C215.53 174.908 216.58 174.677 217.677 174.804C218.6 174.908 219.419 175.449 220.331 175.173C220.77 175.023 220.874 174.527 220.677 174.159Z" fill="#1C2139"></path>
            <path d="M224.834 185.604C224.859 185.604 224.859 185.628 224.834 185.628C224.81 185.628 224.81 185.604 224.834 185.604Z" fill="#594E8A"></path>
            <path d="M239.85 185.028C240.196 184.336 240.577 183.668 240.981 183.011C241.223 182.631 241.5 181.951 242.008 181.928C242.043 181.928 242.077 181.951 242.089 181.985C242.262 182.469 241.719 183.034 241.489 183.438C241.431 183.541 241.373 183.645 241.315 183.749C241.373 183.783 241.419 183.806 241.465 183.841C241.696 183.979 241.962 184.175 241.996 184.463C242.008 184.579 241.881 184.694 241.766 184.694C241.535 184.682 241.35 184.498 241.154 184.383C241.108 184.36 241.05 184.336 241.004 184.313C240.808 184.659 240.623 185.016 240.45 185.374C240.242 185.754 239.653 185.408 239.85 185.028Z" fill="#F68A73"></path>
            <path d="M205.359 181.87C205.867 182.284 206.271 182.907 206.594 183.46C206.848 183.91 207.287 184.555 207.125 185.097C207.09 185.224 206.94 185.293 206.825 185.224C206.49 185.005 206.317 184.59 206.144 184.209C206.052 184.221 205.959 184.221 205.867 184.255C205.717 184.302 205.625 184.371 205.498 184.463C205.197 184.705 204.817 184.336 205.071 184.036C205.244 183.829 205.544 183.691 205.832 183.668C205.521 183.184 205.14 182.757 204.817 182.284C204.597 181.927 205.082 181.639 205.359 181.87Z" fill="#F68A73"></path>
            <path d="M230.453 179.703C230.499 179.288 230.603 178.838 231.007 178.642C231.411 178.458 231.849 178.665 232.08 179.011C232.288 179.345 232.311 179.783 232.219 180.152C232.184 180.291 232.126 180.452 232.045 180.59C231.976 180.809 231.872 181.005 231.711 181.132C231.364 181.397 230.88 181.293 230.66 180.913C230.464 180.567 230.406 180.106 230.453 179.703Z" fill="#1C2139"></path>
            <path d="M217.226 179.703C217.272 179.288 217.376 178.838 217.78 178.642C218.184 178.458 218.622 178.665 218.853 179.011C219.061 179.345 219.084 179.783 218.992 180.152C218.957 180.291 218.899 180.452 218.819 180.59C218.749 180.809 218.645 181.005 218.484 181.132C218.138 181.397 217.653 181.293 217.434 180.913C217.249 180.567 217.191 180.106 217.226 179.703Z" fill="#1C2139"></path>
            <path d="M223.62 184.797C223.966 184.693 224.255 184.762 224.601 184.774C224.751 184.786 224.89 184.774 225.04 184.751C225.109 184.739 225.259 184.705 225.374 184.647C225.34 184.474 225.271 184.301 225.213 184.14C225.12 183.864 225.04 183.587 224.97 183.299C224.832 182.746 224.717 182.192 224.636 181.639C224.555 181.074 224.486 180.51 224.451 179.933C224.416 179.369 224.347 178.758 224.578 178.228C224.693 177.974 225.144 177.974 225.259 178.228C225.444 178.643 225.432 179.104 225.467 179.553C225.501 179.968 225.548 180.371 225.605 180.786C225.744 181.674 225.963 182.55 226.228 183.414C226.344 183.817 226.575 184.255 226.598 184.682C226.621 185.177 226.228 185.466 225.801 185.604C225.12 185.823 224.059 185.742 223.516 185.258C223.343 185.108 223.435 184.855 223.62 184.797Z" fill="#F68A73"></path>
            <path d="M219.995 188.935C220.306 188.923 220.618 189.05 220.918 189.142C221.207 189.223 221.484 189.303 221.772 189.396C222.384 189.615 223.03 189.764 223.677 189.845C224.312 189.926 224.958 189.949 225.593 189.903C225.881 189.88 226.17 189.857 226.459 189.776C226.747 189.695 226.978 189.58 227.278 189.557C227.486 189.545 227.647 189.776 227.59 189.96C227.37 190.617 226.597 190.767 225.985 190.859C225.247 190.975 224.496 191.009 223.746 190.94C223.019 190.871 222.303 190.721 221.611 190.502C221.23 190.375 220.907 190.226 220.56 190.007C220.272 189.822 219.949 189.615 219.787 189.315C219.672 189.142 219.799 188.935 219.995 188.935Z" fill="#F68A73"></path>
            <path d="M181.906 207.514C181.883 207.595 181.871 207.71 181.848 207.871C181.848 207.883 181.848 207.883 181.848 207.894C181.675 209.323 181.49 214.049 181.271 219.984C181.121 224.226 180.948 229.078 180.763 233.804C180.752 234.207 180.74 234.599 180.728 235.002C180.521 240.373 180.301 245.467 180.071 249.178H162.042C163.415 233.734 168.309 208.955 168.748 205.405V205.393C168.748 205.37 168.759 205.336 168.759 205.313C169.094 202.224 182.16 206.546 181.906 207.514Z" fill="#FFB69E"></path>
            <path d="M192.075 149.841H163.426L163.876 147.974C169.301 121.188 185.565 112.717 185.565 112.717L192.075 149.841Z" fill="#3C68B8"></path>
            <path d="M274.985 149.84H246.948L253.816 115.056C253.816 115.056 266.282 119.286 272.63 138.879C273.184 140.585 273.68 142.383 274.142 144.331L274.985 149.84Z" fill="#3C68B8"></path>
            <path d="M234.274 111.391L232.716 118.041L220.412 149.506L207.403 111.299L211.178 110.077L211.559 101.848L211.616 100.212L211.824 95.4055L229.207 98.4943L229.438 102.632L229.472 103.404L229.876 110.285L234.274 111.391Z" fill="#974034"></path>
            <path d="M229.437 102.632C227.256 104.188 224.52 105.145 221.023 105.145C218.091 105.145 215.667 104.465 213.67 103.335C213.647 103.312 213.613 103.289 213.59 103.289C212.862 102.874 212.181 102.379 211.558 101.837L211.616 100.2L211.824 95.3943L229.206 98.4831L229.437 102.632Z" fill="#662C24"></path>
            <path d="M202.371 82.0594C202.371 82.0594 201.251 74.0723 202.694 67.3645C204.137 60.6567 205.36 56.8072 213.244 55.8275C221.127 54.8479 232.104 54.4099 235.324 59.4696C238.544 64.5177 240.01 74.4642 237.806 83.1313C235.601 91.7984 205.614 84.0303 205.614 84.0303L202.371 82.0594Z" fill="#260E14"></path>
            <path d="M236.951 81.8748C236.951 81.8748 236.824 81.8748 236.593 81.8978C236.57 82.5778 236.57 83.2463 236.57 83.9148C236.512 84.4911 236.443 85.1019 236.339 85.6321C236.316 85.9202 236.281 86.2083 236.189 86.4619C235.854 88.3636 235.773 90.0463 235.173 91.8788C234.55 93.746 233.765 95.6131 232.599 97.2036L232.311 97.6415C231.537 98.5751 230.695 99.4049 229.691 100.131C227.474 101.791 224.647 102.828 221.011 102.828C218.079 102.828 215.655 102.148 213.658 101.018C213.635 100.995 213.601 100.972 213.577 100.972C212.181 100.189 211.003 99.1514 209.988 97.9642C209.965 97.9066 209.907 97.8605 209.884 97.8144C207.148 94.5412 205.752 90.2077 205.048 86.4504C204.817 85.0789 204.713 83.4653 204.713 81.748C204.713 81.4138 204.736 81.0795 204.759 80.7568C204.759 80.7338 204.736 80.7338 204.713 80.7107C204.713 80.7107 204.736 80.584 204.794 80.3419C204.874 79.2816 205.059 78.1867 205.359 77.0918C205.879 74.2335 206.086 73.0694 206.34 71.8247C206.779 69.704 207.275 65.4626 212.181 64.7135C217.086 63.9528 228.767 63.6186 233.072 65.9813C237.366 68.3325 236.951 81.8748 236.951 81.8748Z" fill="#974034"></path>
            <path d="M222.316 86.439C222.328 86.439 222.328 86.463 222.316 86.463C222.304 86.475 222.304 86.439 222.316 86.439Z" fill="#594E8A"></path>
            <path d="M205.14 80.3193C205.14 80.3193 203.12 76.4238 200.593 78.4177C198.63 79.962 200.258 89.4704 206.352 89.2515L205.14 80.3193Z" fill="#974034"></path>
            <path d="M202.902 81.6559C203.398 82.0593 203.802 82.6702 204.125 83.2349C204.379 83.6844 204.806 84.3184 204.656 84.8485C204.622 84.9638 204.472 85.0445 204.356 84.9638C204.033 84.7563 203.86 84.3414 203.687 83.9611C203.595 83.9726 203.502 83.9726 203.41 84.0072C203.271 84.0533 203.168 84.1224 203.052 84.2031C202.752 84.4336 202.383 84.0763 202.637 83.7882C202.81 83.5922 203.098 83.4539 203.387 83.4194C203.075 82.9468 202.706 82.5204 202.383 82.0478C202.152 81.7251 202.625 81.4369 202.902 81.6559Z" fill="#662C24"></path>
            <path d="M236.535 80.3193C236.535 80.3193 238.555 76.4238 241.083 78.4177C243.045 79.962 241.418 89.4704 235.323 89.2515L236.535 80.3193Z" fill="#974034"></path>
            <path d="M238.775 81.6559C238.279 82.0593 237.875 82.6702 237.552 83.2349C237.298 83.6844 236.871 84.3184 237.021 84.8485C237.056 84.9638 237.206 85.0445 237.321 84.9638C237.644 84.7563 237.817 84.3414 237.99 83.9611C238.083 83.9726 238.175 83.9726 238.268 84.0072C238.406 84.0533 238.51 84.1224 238.625 84.2031C238.925 84.4336 239.295 84.0763 239.041 83.7882C238.868 83.5922 238.579 83.4539 238.291 83.4194C238.602 82.9468 238.972 82.5204 239.295 82.0478C239.526 81.7251 239.041 81.4369 238.775 81.6559Z" fill="#662C24"></path>
            <path d="M229.702 100.12C227.486 101.779 224.658 102.817 221.022 102.817C218.09 102.817 215.667 102.137 213.67 101.007C213.647 100.984 213.612 100.961 213.589 100.961C213.254 100.004 213.358 98.5983 213.335 97.6417C213.335 96.3393 213.381 95.0484 213.485 93.7691C213.67 91.902 213.75 89.9772 214.789 88.3983C215.99 86.5542 219.152 86.0932 220.941 86.7616C221.334 86.9115 221.334 87.5339 220.941 87.6722C219.822 88.0871 218.61 88.1332 217.513 88.5827C216.601 88.94 216.29 89.8735 216.059 90.8878C215.747 92.2132 215.851 93.4349 216.001 94.8294C216.128 96.0166 216.359 98.045 217.121 98.9325C217.744 100.131 218.725 101.134 219.926 101.353C220.191 101.41 220.491 101.41 220.711 101.272C220.941 101.168 221.08 100.938 221.288 100.811C221.68 100.581 222.142 100.684 222.557 100.869C222.95 101.053 223.331 101.307 223.758 101.364C224.612 101.491 225.397 100.823 225.916 100.039C227.001 98.4023 227.371 96.7772 227.324 94.7142C227.278 92.9162 227.301 89.9888 225.87 88.8939C225.304 88.4559 224.647 88.2254 223.966 88.1101C223.596 88.0525 221.576 87.3494 222.8 86.7847C223.469 86.5196 224.196 86.7386 224.831 86.9345C225.454 87.1189 226.124 87.2918 226.724 87.5339C227.948 88.0525 228.675 89.0667 229.033 90.4959C229.39 91.925 229.506 93.481 229.633 94.9562C229.702 95.7169 229.702 99.163 229.702 100.12Z" fill="#260E14"></path>
            <path d="M215.506 78.3486C215.414 78.3371 215.31 78.3371 215.206 78.3602C214.109 78.5446 214.04 80.0082 214.375 80.8264C214.536 81.2298 214.86 81.5755 215.321 81.564C215.829 81.564 216.164 81.1491 216.337 80.7112C216.637 79.9275 216.626 78.3717 215.506 78.3486Z" fill="#260E14"></path>
            <path d="M218.01 74.1994C217.433 73.162 215.84 73.1044 214.766 73.0468C213.439 72.9892 212.135 73.1966 210.98 73.8421C210.299 74.2224 210.715 75.4212 211.5 75.2828C212.619 75.0869 213.716 74.8218 214.87 74.9255C215.84 75.0062 216.717 75.5595 217.664 75.2483C218.125 75.0869 218.218 74.5797 218.01 74.1994Z" fill="#260E14"></path>
            <path d="M228.802 77.9105C228.894 77.899 228.998 77.9105 229.102 77.9221C230.187 78.1295 230.233 79.5932 229.887 80.4C229.714 80.7918 229.379 81.1376 228.929 81.1261C228.421 81.1145 228.098 80.6881 227.936 80.2502C227.647 79.4664 227.694 77.9105 228.802 77.9105Z" fill="#260E14"></path>
            <path d="M226.055 74.0609C226.597 72.9544 228.202 72.8853 229.275 72.8276C230.602 72.7585 231.918 72.989 233.096 73.6805C233.788 74.0839 233.407 75.3863 232.622 75.225C231.491 75.006 230.383 74.7294 229.229 74.8331C228.259 74.9253 227.394 75.5131 226.436 75.1789C225.962 75.029 225.847 74.4758 226.055 74.0609Z" fill="#260E14"></path>
            <path d="M219.143 88.1562C219.119 88.1562 219.119 88.1804 219.143 88.1804C219.167 88.1804 219.167 88.1562 219.143 88.1562Z" fill="#594E8A"></path>
            <path d="M223.504 82.2667C223.273 81.1257 223.042 79.9501 222.604 78.8667C222.465 78.5209 222.003 78.6477 222.05 79.0165C222.2 80.1806 222.511 81.3216 222.719 82.4741C222.8 82.9236 223.111 83.7649 223.008 84.2144C223.204 84.7446 222.973 84.8483 222.292 84.5256C222.003 84.4449 221.726 84.3873 221.426 84.3412C221.045 84.2721 220.734 84.8137 221.138 85.0097C221.853 85.3554 223.689 85.9778 223.896 84.7561C224.023 84.0415 223.642 82.9582 223.504 82.2667Z" fill="#662C24"></path>
            <path d="M255.707 149.841H180.208L185.564 112.717C185.564 112.717 193.944 109.997 211.165 110.089C211.984 115.403 218.54 131.239 220.768 136.517C221.253 137.624 221.518 138.269 221.518 138.269C222.476 136.759 223.792 133.578 225.131 129.775C227.37 123.47 229.702 115.426 230.625 110.493V110.481C230.637 110.47 230.637 110.458 230.637 110.458C248.273 111.991 253.802 115.068 253.802 115.068C253.802 115.068 254.576 129.982 255.707 149.841Z" fill="#4376CF"></path>
            <path d="M202.116 81.7485C202.716 80.1926 204.84 81.979 205.255 83.2122C205.521 83.9844 205.313 85.1599 204.678 85.7247C205.105 86.4162 205.556 87.1077 205.902 87.8338C206.202 88.4676 205.394 89.2168 204.863 88.6175C203.478 87.0846 201.723 84.5606 201.977 82.3247C202.012 82.1058 202.058 81.9098 202.116 81.7485Z" fill="white"></path>
            <path d="M226.193 90.0233C225.904 89.8389 225.65 89.9426 225.339 89.9887C225.027 90.0463 224.704 90.0579 224.381 90.104C223.734 90.2077 223.088 90.2999 222.43 90.346C221.772 90.3921 221.114 90.3921 220.468 90.346C220.145 90.323 219.821 90.2884 219.51 90.2423C219.187 90.1962 218.84 90.0694 218.529 90.2077C218.321 90.2999 218.263 90.5074 218.402 90.6803C218.621 90.9454 218.967 91.003 219.279 91.0722C219.625 91.1529 219.983 91.2105 220.341 91.2566C221.056 91.3603 221.772 91.4064 222.499 91.3834C223.226 91.3719 223.953 91.2912 224.658 91.1068C225.004 91.0145 225.339 90.8532 225.673 90.7149C225.95 90.5996 226.158 90.5189 226.262 90.2192C226.308 90.1501 226.25 90.0694 226.193 90.0233Z" fill="#662C24"></path>
            <path d="M293.531 99.7393C291.511 111.461 288.96 116.705 288.96 116.705C289.641 126.755 290.045 136.828 290.195 146.901C290.207 147.685 290.242 148.665 290.299 149.852H271.173C271.231 149.46 271.289 149.068 271.335 148.688C271.739 145.426 272.189 142.164 272.605 138.891L272.974 136.033C273.586 131.261 274.186 126.478 274.705 121.695L274.844 119.759L274.994 116.509C274.994 116.509 271.647 112.752 270.954 109.294C270.273 105.836 267.041 101.468 266.268 100.754C265.506 100.051 265.945 97.0539 268.692 98.437C271.416 99.82 275.109 103.727 275.109 103.727C275.109 103.727 276.414 85.5976 277.822 84.5373C278.999 83.6614 279.784 86.1278 280.096 94.8065L280.373 99.0824V99.1285L280.396 99.5549C280.407 99.5088 280.442 99.359 280.477 99.117C280.477 99.1054 280.488 99.0939 280.488 99.0824C280.869 97.2383 282.196 90.5305 282.831 86.7387C283.582 82.359 284.955 83.0736 285.636 83.9956C286.294 84.9407 286.329 91.3027 285.705 96.3278L285.498 99.1515L285.486 99.2207V99.2322L285.463 99.5895C285.463 99.5895 285.498 99.4743 285.578 99.2553V99.2438C285.578 99.2207 285.59 99.2092 285.601 99.1746C285.844 98.3678 286.409 96.3509 287.125 92.8587C287.922 88.917 287.852 86.0932 289.561 86.0241C291.546 85.9204 290.149 97.2037 289.734 100.027C289.722 100.108 289.711 100.189 289.711 100.258C289.688 100.327 289.687 100.408 289.687 100.454C289.699 100.408 289.711 100.35 289.722 100.281C289.722 100.27 289.722 100.27 289.722 100.27C289.745 100.212 289.757 100.131 289.78 100.051C290.115 98.8865 291.096 95.6017 292.804 91.6485C293.335 90.3807 295.216 90.0465 293.531 99.7393Z" fill="#974034"></path>
            <path d="M289.676 100.189C288.845 99.6701 287.726 99.5548 286.768 99.3935C285.764 99.2206 284.748 99.1053 283.721 99.0592C282.751 99.0131 281.77 99.0131 280.801 99.0592C279.831 99.1053 278.781 99.1745 277.869 99.5087C277.834 99.5203 277.834 99.5779 277.88 99.5894C278.792 99.6701 279.727 99.5664 280.639 99.5433C281.701 99.5203 282.774 99.5664 283.836 99.6586C284.817 99.7508 285.798 99.8776 286.768 100.05C287.703 100.223 288.672 100.581 289.619 100.558C289.838 100.558 289.826 100.281 289.676 100.189Z" fill="#662C24"></path>
            <path d="M280.235 108.06C279.808 107.254 279.242 106.528 278.585 105.905C278.019 105.375 277.176 104.684 276.357 104.741C276.241 104.753 276.172 104.914 276.276 104.995C276.599 105.237 276.98 105.387 277.315 105.594C277.638 105.802 277.938 106.067 278.215 106.343C278.838 106.954 279.346 107.692 279.727 108.487C280.466 110.008 280.651 111.679 280.674 113.351C280.674 113.547 280.939 113.524 280.985 113.362C281.528 111.587 281.101 109.663 280.235 108.06Z" fill="#662C24"></path>
            <path d="M214.64 85.6435C211.501 85.6435 208.938 83.0963 208.938 79.9499C208.938 76.8035 211.489 74.2563 214.64 74.2563C217.791 74.2563 220.342 76.8035 220.342 79.9499C220.342 83.0963 217.791 85.6435 214.64 85.6435ZM214.64 74.9364C211.87 74.9364 209.619 77.1838 209.619 79.9499C209.619 82.716 211.87 84.9635 214.64 84.9635C217.411 84.9635 219.661 82.716 219.661 79.9499C219.661 77.1838 217.411 74.9364 214.64 74.9364Z" fill="#F6F6F6"></path>
            <path d="M229.969 85.6435C226.829 85.6435 224.267 83.0963 224.267 79.9499C224.267 76.8035 226.818 74.2563 229.969 74.2563C233.12 74.2563 235.671 76.8035 235.671 79.9499C235.671 83.0963 233.109 85.6435 229.969 85.6435ZM229.969 74.9364C227.199 74.9364 224.948 77.1838 224.948 79.9499C224.948 82.716 227.199 84.9635 229.969 84.9635C232.739 84.9635 234.99 82.716 234.99 79.9499C234.99 77.1838 232.739 74.9364 229.969 74.9364Z" fill="#F6F6F6"></path>
            <path d="M224.51 80.2726C221.751 79.3736 220.193 80.238 220.17 80.2495L219.835 79.6617C219.905 79.6156 221.671 78.6359 224.718 79.6387L224.51 80.2726Z" fill="#F6F6F6"></path>
            <path d="M431.198 72.6197C432.883 75.1207 434.638 77.5986 436.992 79.4658C439.52 81.4597 442.579 82.6237 445.338 84.2834C448.096 85.9431 450.693 88.3634 451.259 91.5214C451.778 94.4604 450.451 97.48 450.855 100.442C451.305 103.727 453.81 106.412 454.444 109.662C455.333 114.146 452.274 118.756 448.165 120.773C441.021 124.277 434.926 120.335 427.77 120.208C421.168 120.093 414.762 122.237 408.54 124.415C406.878 124.991 405.181 125.591 403.416 125.694C396.294 126.144 390.834 118.917 383.77 117.903C379.05 117.223 373.994 119.39 369.608 117.523C364.956 115.54 363.121 109.57 364.218 104.637C365.314 99.7044 368.627 95.6014 371.87 91.7288C375.114 87.8563 378.507 83.8454 379.834 78.9702C380.654 75.9505 380.642 72.7349 381.635 69.7729C384.29 61.8319 393.639 55.2047 401.615 53.6373C407.906 52.3925 413.977 54.3403 419.471 57.337C424.561 60.1146 427.62 67.318 430.759 72.0203C430.921 72.2047 431.06 72.4122 431.198 72.6197Z" fill="#091E42"></path>
            <path d="M389.877 92.4666C389.819 92.3283 389.704 92.2015 389.554 92.1208C389.819 91.5907 389.866 90.9453 389.646 90.3921C389.635 90.3575 389.6 90.3229 389.589 90.2768C389.542 89.8504 389.3 89.447 389.012 89.1358C388.435 88.5019 387.419 88.1216 386.577 88.3867C386.45 88.3406 386.311 88.3291 386.184 88.3406C386.207 88.3406 386.277 88.3175 386.15 88.3406C386.08 88.3521 386.023 88.3752 385.965 88.4097C385.896 88.4443 385.838 88.5019 385.78 88.548C385.63 88.6633 385.503 88.7901 385.4 88.9514C385.065 89.5046 384.892 90.1731 384.949 90.8185C385.007 91.51 385.261 92.1554 385.723 92.674C386.15 93.1466 386.761 93.4808 387.373 93.6076C388.077 93.7574 388.781 93.6883 389.427 93.3886C389.427 93.3886 389.427 93.3886 389.439 93.3886C389.496 93.3655 389.542 93.3425 389.6 93.3194C389.9 93.1466 390.004 92.7547 389.877 92.4666Z" fill="white"></path>
            <path d="M357.512 149.84H341.537C340.868 146.705 340.233 143.605 339.69 140.804C339.552 140.147 339.436 139.49 339.321 138.868C338.801 136.206 338.386 133.912 338.086 132.264C337.774 130.512 337.601 129.475 337.601 129.475C337.601 129.475 343.28 130.65 348.393 126.132C348.393 126.132 348.543 126.49 348.797 127.147C350.032 130.258 353.934 140.147 357.512 149.84Z" fill="#FFB69E"></path>
            <path d="M346.246 108.521C346.339 108.844 346.408 109.178 346.466 109.501C346.777 111.253 347.054 113.039 347.724 114.699C348.07 115.563 348.52 116.393 348.832 117.281C349.444 119.044 349.432 120.957 349.397 122.824C349.34 125.729 348.947 129.486 345.554 130.304C343.476 130.811 341.964 133.981 339.771 133.335C338.201 132.874 337.012 130.961 335.996 129.797C334.611 128.207 333.295 126.559 332.164 124.784C330.225 121.752 328.817 118.318 328.644 114.733C328.494 111.656 329.556 108.176 332.326 106.804C332.984 106.481 333.769 106.297 334.427 106.608C334.819 106.792 335.119 107.138 335.408 107.461C336.366 108.567 337.335 109.674 338.293 110.769C338.951 111.529 339.632 112.302 340.452 112.878C341.029 113.281 342.333 114.077 343.061 113.639C343.811 113.189 343.73 111.506 343.753 110.769C343.788 109.547 343.684 108.325 343.845 107.115C343.869 106.977 343.892 106.839 343.972 106.723C344.157 106.481 344.526 106.481 344.815 106.597C345.6 106.919 346.004 107.68 346.246 108.521Z" fill="#FFB69E"></path>
            <path d="M343.338 125.337C342.68 123.827 342.253 122.455 342.461 120.796C342.669 119.159 343.511 117.822 344.019 116.289C344.042 116.209 343.938 116.128 343.869 116.186C341.595 118.433 340.614 123.078 342.819 125.682C343.05 125.959 343.477 125.648 343.338 125.337Z" fill="#F68A73"></path>
            <path d="M380.402 149.84H358.979C359.521 147.673 360.064 145.426 360.594 143.086C365.581 121.338 373.257 116.359 373.257 116.359C379.12 114.469 380.286 135.514 380.402 149.84Z" fill="#E84438"></path>
            <path d="M446.884 149.84H423.88C424.03 148.457 424.192 147.005 424.365 145.518C424.55 143.996 424.735 142.429 424.954 140.861C425.958 133.416 427.32 125.913 429.098 121.464C430.229 118.606 431.545 117.015 433.033 117.488L433.207 117.557C439.278 120.242 443.052 132.114 446.884 149.84Z" fill="#FE584C"></path>
            <path d="M419.01 112.383C419.01 112.383 408.968 149.437 400.15 147.581C391.343 145.726 386.184 110.999 386.184 110.999L393.513 107.161C394.494 106.654 395.14 105.675 395.233 104.591L395.314 103.646L396.018 95.0137L408.76 96.4198L409.176 101.295L409.511 105.214C409.603 106.251 410.18 107.173 411.069 107.692L419.01 112.383Z" fill="#FFB69E"></path>
            <path d="M409.175 101.307C406.647 103.543 403.265 104.914 398.741 104.407C397.482 104.269 396.34 104.004 395.312 103.646L396.017 95.0137L408.759 96.4198L409.175 101.307Z" fill="#F68A73"></path>
            <path d="M415.685 82.1976C415.685 82.1976 418.444 79.8925 419.922 81.7251C421.388 83.5576 419.102 92.0747 413.434 91.2448L415.685 82.1976Z" fill="#FFB69E"></path>
            <path d="M387.35 71.1559C390.247 65.0014 400.9 65.0936 400.9 65.0936C400.9 65.0936 402.597 70.0956 415.859 77.4949C415.859 77.4949 417.256 81.3098 415.282 87.7755C413.32 94.2413 408.911 101.352 398.73 101.41C390.397 101.456 386.045 91.2562 385.526 84.5139C385.018 77.7946 387.35 71.1559 387.35 71.1559Z" fill="#FFB69E"></path>
            <path d="M401.627 86.2542C401.638 86.2542 401.638 86.2771 401.627 86.2771C401.615 86.2771 401.615 86.2542 401.627 86.2542Z" fill="#594E8A"></path>
            <path d="M405.333 79.9495C405.414 79.9495 405.506 79.961 405.598 79.9956C406.568 80.2838 406.476 81.6092 406.083 82.3123C405.899 82.6581 405.564 82.9347 405.148 82.877C404.686 82.8194 404.432 82.4045 404.329 82.0011C404.144 81.2519 404.329 79.8458 405.333 79.9495Z" fill="#1C2139"></path>
            <path d="M392.786 79.0162C392.705 79.0047 392.613 78.9932 392.509 78.9932C391.505 79.0623 391.297 80.3763 391.528 81.1601C391.643 81.5405 391.909 81.8748 392.313 81.9209C392.775 81.967 393.11 81.6212 393.306 81.2408C393.675 80.5608 393.791 79.143 392.786 79.0162Z" fill="#1C2139"></path>
            <path d="M433.195 117.569L432.029 127.585H432.006L431.983 127.677L429.409 149.84H371.017C369.585 146.636 368.489 142.429 370.474 139.49C373.429 135.145 374.479 130.593 374.652 126.686C374.802 123.435 374.352 120.635 373.914 118.756C373.59 117.327 373.279 116.463 373.256 116.359C373.233 116.336 373.233 116.336 373.233 116.336L389.265 109.006C389.288 109.109 389.323 109.202 389.346 109.317C390.869 115.16 391.239 135.157 400.126 135.157C402.319 135.157 404.293 133.659 406.036 131.376C411.011 124.888 414.058 112.094 414.577 109.766C414.635 109.524 414.658 109.397 414.658 109.397L431.429 116.808L431.614 116.877H431.637L432.999 117.477L433.195 117.569Z" fill="#FE584C"></path>
            <path d="M397.875 83.0733C398.222 82.255 398.199 81.1832 398.73 80.4916C398.753 80.4571 398.799 80.4455 398.833 80.4801C399.526 81.1486 399.087 82.3933 398.799 83.1771C398.591 83.7303 398.349 84.2605 398.095 84.8022C398.014 84.975 397.61 85.5283 397.644 85.7357C397.76 86.289 398.787 86.2774 399.18 86.2313C399.826 86.1622 399.826 87.1764 399.18 87.2456C398.256 87.3263 396.398 86.8652 396.617 85.6781C396.767 84.8022 397.529 83.8917 397.875 83.0733Z" fill="#F68A73"></path>
            <path d="M417.302 83.9029C417.556 83.8107 417.786 84.191 417.567 84.3639C417.013 84.7904 416.471 85.2168 415.998 85.747C416.482 85.7355 417.002 85.8508 417.417 86.0006C417.752 86.1159 417.729 86.6691 417.325 86.6461C416.713 86.623 415.974 86.7383 415.386 86.6C415.167 86.9803 414.97 87.3722 414.751 87.7641C414.543 88.1445 413.978 87.8794 414.07 87.476C414.416 85.943 415.871 84.4446 417.302 83.9029Z" fill="#F68A73"></path>
            <path d="M430.102 121.753C426.523 130.904 426.189 140.343 427.008 149.828H425.254C425.184 148.906 425.138 147.984 425.092 147.051C425.023 145.645 424.988 144.25 424.965 142.856C424.953 142.199 424.942 141.53 424.942 140.85C424.896 134.246 425.346 127.008 429.086 121.453C429.109 121.418 429.132 121.384 429.155 121.349C429.467 120.911 430.332 121.176 430.102 121.753Z" fill="#E84438"></path>
            <path d="M402.47 76.2037C402.574 76.1692 402.666 76.1231 402.77 76.0885C402.689 76.1346 402.608 76.1807 402.528 76.2268C402.816 75.9963 403.093 75.9848 403.451 75.9732C403.705 75.9617 403.959 75.9617 404.213 75.9732C404.767 75.9848 405.332 76.0539 405.875 76.1346C406.417 76.2268 406.925 76.3651 407.433 76.561C407.93 76.7454 408.461 76.9414 408.83 77.3447C409.003 77.5292 408.888 77.8749 408.611 77.8749C408.103 77.8634 407.641 77.679 407.156 77.5637C406.648 77.437 406.129 77.3447 405.61 77.2641C405.125 77.1949 404.64 77.1603 404.144 77.1603C403.89 77.1603 403.636 77.1603 403.382 77.1834C403.255 77.1949 403.128 77.218 403.001 77.218C402.851 77.218 402.724 77.1488 402.574 77.1258C402.066 77.0566 401.951 76.3997 402.47 76.2037Z" fill="#1C2139"></path>
            <path d="M389.104 75.8581C389.196 75.6391 389.496 75.4547 389.715 75.3741C389.969 75.2818 390.246 75.2127 390.512 75.1666C391.054 75.0629 391.62 75.0629 392.162 75.1205C392.693 75.1666 393.236 75.2588 393.732 75.4432C393.998 75.5469 394.263 75.6622 394.517 75.789C394.633 75.8466 394.759 75.9042 394.852 75.9849C394.956 76.0771 395.036 76.2154 395.129 76.3306C395.313 76.5496 395.14 76.8377 394.863 76.7916C394.748 76.7686 394.644 76.7686 394.529 76.7686C394.39 76.7571 394.275 76.6994 394.159 76.6533C393.928 76.5727 393.698 76.492 393.467 76.4344C393.005 76.3191 392.555 76.2154 392.082 76.1923C391.597 76.1578 391.112 76.2039 390.627 76.25C390.189 76.2961 389.646 76.5035 389.231 76.273C389.058 76.1923 389.034 76.0079 389.104 75.8581Z" fill="#1C2139"></path>
            <path d="M396.953 90.6223C397.08 90.6338 397.183 90.6108 397.31 90.6223C397.449 90.6338 397.576 90.6799 397.714 90.703C397.945 90.7606 398.188 90.7952 398.43 90.8182C398.903 90.8643 399.388 90.8874 399.861 90.8643C400.323 90.8413 400.773 90.7606 401.223 90.6454C401.708 90.507 402.17 90.2535 402.655 90.1382C403.105 90.0345 403.439 90.5762 403.105 90.9104C402.724 91.3023 402.124 91.5213 401.604 91.6827C401.05 91.8555 400.473 91.9478 399.907 91.9939C399.342 92.0284 398.788 92.0054 398.234 91.8671C397.968 91.7979 397.714 91.7172 397.46 91.625C397.333 91.5789 397.195 91.5328 397.08 91.4752C396.941 91.3945 396.883 91.2793 396.791 91.2101C396.583 91.0488 396.606 90.5762 396.953 90.6223Z" fill="#F68A73"></path>
            <path d="M342.495 101.468H329.706C329.706 101.468 322.192 119.805 335.628 120.197V138.488C332.557 138.58 330.134 139.571 330.134 140.793H335.628H336.54H342.034C342.034 139.571 339.61 138.58 336.54 138.488V120.197C349.917 119.77 342.495 101.468 342.495 101.468Z" fill="#DFE1E5"></path>
            <path d="M341.341 115.956C340.995 116.463 339.933 118.042 336.066 118.042C332.188 118.042 331.15 116.474 330.792 115.967C329.314 113.766 329.58 109.997 330.261 106.747H341.918C342.588 109.997 342.83 113.777 341.341 115.956Z" fill="#FE584C"></path>
            <path d="M417.556 91.1757C416.898 89.9886 415.375 89.3201 414.116 89.735C413.008 89.8042 411.992 90.7954 411.588 91.7635C411.034 93.1235 411.404 94.8062 412.5 95.8089C413.101 96.3506 413.909 96.7194 414.728 96.6849C415.571 96.6503 416.31 96.2123 416.875 95.6015C417.995 94.4259 418.376 92.6395 417.556 91.1757Z" fill="white"></path>
            <path d="M415.801 98.9093C415.789 98.8171 415.778 98.7249 415.755 98.6327C415.72 98.5175 415.674 98.3907 415.605 98.2869C415.305 97.8144 414.739 97.5262 414.185 97.676C414.162 97.676 414.15 97.6876 414.139 97.6991C414.116 97.6991 414.093 97.6991 414.069 97.7106C414.035 97.7222 413.989 97.7222 413.954 97.7452C413.769 97.8144 413.642 97.8835 413.492 98.0103C413.469 98.0334 413.435 98.0564 413.412 98.091C413.354 98.1602 413.296 98.2293 413.25 98.31C413.088 98.6097 413.065 98.9209 413.134 99.2436C413.146 99.2782 413.158 99.3243 413.169 99.3589C413.204 99.4511 413.238 99.5317 413.285 99.6124C413.354 99.7162 413.435 99.8314 413.527 99.9121C413.712 100.062 413.919 100.189 414.162 100.223C414.289 100.246 414.404 100.258 414.52 100.246C414.635 100.235 414.762 100.223 414.877 100.177C414.981 100.143 415.097 100.097 415.201 100.027C415.293 99.9697 415.397 99.889 415.478 99.8084C415.559 99.7277 415.628 99.6239 415.674 99.5202C415.755 99.3473 415.801 99.209 415.812 99.0015C415.801 98.9785 415.801 98.9439 415.801 98.9093Z" fill="white"></path>
            <path d="M388.099 95.7972C388.053 95.5205 387.891 95.2439 387.683 95.0365C387.487 94.829 387.199 94.6677 386.91 94.6216C386.702 94.587 386.529 94.587 386.31 94.6331C386.171 94.6677 386.033 94.7253 385.917 94.7944C385.686 94.9443 385.467 95.1633 385.34 95.4168C385.282 95.5436 385.224 95.6704 385.201 95.8087C385.167 96.0161 385.167 96.1775 385.201 96.3849C385.247 96.65 385.409 96.9151 385.605 97.0995C385.802 97.2839 386.056 97.4337 386.333 97.5029C386.598 97.5605 386.898 97.572 387.152 97.4683C387.337 97.3992 387.499 97.307 387.637 97.1687C387.718 97.088 387.776 96.9958 387.834 96.8921C387.857 96.8575 387.891 96.8459 387.903 96.8114C387.984 96.6846 388.041 96.5463 388.076 96.3965C388.134 96.189 388.134 96.0046 388.099 95.7972Z" fill="white"></path>
            <path d="M465.168 195.561C462.548 198.27 460.678 200.667 460.032 201.52C459.986 201.578 459.951 201.647 459.916 201.681C459.916 201.681 459.916 201.681 459.916 201.693C459.882 201.751 459.847 201.785 459.824 201.82C459.835 201.785 459.87 201.727 459.916 201.67C459.939 201.612 459.986 201.555 460.02 201.497C461.324 199.319 466.357 190.513 464.926 189.983C463.702 189.522 462.744 191.85 460.77 194.835C459.016 197.463 457.896 198.95 457.435 199.538C457.423 199.561 457.4 199.572 457.4 199.584V199.595C457.262 199.745 457.192 199.837 457.192 199.837L457.331 199.549V199.538L457.366 199.492L458.52 197.244C460.759 193.325 463.021 188.104 462.894 187.125C462.744 186.157 462.04 185.154 459.939 188.508C458.127 191.424 454.792 196.506 453.868 197.901C453.857 197.913 453.857 197.924 453.845 197.924C453.73 198.109 453.649 198.224 453.626 198.258L453.764 197.901L453.776 197.866L455.115 194.282C458.012 187.079 458.347 184.82 457.204 185.177C455.83 185.615 448.409 200.045 448.409 200.045C448.409 200.045 447.22 195.723 445.812 193.752C444.392 191.781 443.723 194.04 444 194.858C444.288 195.677 445.512 198.108 444 202.557C442.996 205.519 443.734 210.487 443.734 210.487L441.922 217.782C442.292 217.909 442.511 218.289 442.499 218.693C442.511 218.681 442.511 218.67 442.523 218.658C442.546 218.439 442.465 218.289 442.43 218.232C442.396 218.186 442.407 218.197 442.43 218.232C442.453 218.266 442.511 218.313 442.603 218.405C442.8 218.566 442.996 218.739 443.192 218.9C443.7 219.315 444.219 219.73 444.75 220.134C445.893 221.009 447.001 221.713 448.317 222.335C449.967 223.119 451.687 223.787 453.43 224.352C453.799 218.843 453.811 214.29 453.972 213.806C453.972 213.806 457.1 211.42 462.721 202.442C467.407 195.02 465.976 194.709 465.168 195.561Z" fill="#974034"></path>
            <path d="M443.446 249.167H413.793C416.344 238.287 421.33 220.088 425.982 221.021C425.982 221.021 432.18 224.225 437.478 233.192C439.879 237.261 442.084 242.493 443.446 249.167Z" fill="#3C68B8"></path>
            <path d="M365.903 207.294C367.404 207.606 368.904 207.894 370.012 208.885C371.825 210.498 372.044 213.541 374.121 214.774C375.449 215.57 377.146 215.362 378.6 214.855C380.054 214.348 381.416 213.553 382.928 213.218C388.226 212.02 391.643 216.353 395.717 218.716C399.792 221.067 404.778 221.644 409.129 219.627C413.308 217.69 417.14 215.754 421.953 215.812C422.934 215.823 423.938 215.915 424.896 215.673C426.616 215.235 427.978 213.668 428.163 211.916C428.29 210.706 428.013 209.219 428.982 208.482C429.548 208.055 430.333 208.078 431.014 207.882C432.71 207.387 433.634 205.554 434.084 203.848C434.534 202.143 434.765 200.275 435.885 198.904C436.947 197.602 438.678 196.933 439.578 195.504C440.686 193.752 440.178 191.435 439.243 189.58C438.401 187.897 437.212 186.261 437.212 184.382C437.212 182.757 438.135 181.109 437.616 179.564C436.82 177.19 433.23 176.741 432.364 174.378C431.995 173.375 432.237 172.257 432.191 171.185C432.099 168.949 430.633 166.84 428.578 165.964C426.328 165.008 423.43 165.365 421.745 163.59C421.087 162.887 420.729 161.953 420.222 161.135C418.34 158.15 414.358 157.032 410.884 157.655C408.968 158 406.948 158.784 405.17 158.012C403.901 157.459 403.047 156.202 401.789 155.615C398.499 154.07 394.632 157.712 391.158 156.606C390.165 156.295 389.334 155.615 388.365 155.246C385.318 154.07 381.97 156.122 379.754 158.519C379.062 159.268 378.358 160.086 377.399 160.444C376.615 160.732 375.737 160.663 374.895 160.628C371.651 160.478 367.992 161.008 366.042 163.59C364.541 165.572 364.426 168.35 362.925 170.332C361.217 172.626 357.858 173.686 357.073 176.429C356.346 178.953 358.228 181.547 357.985 184.151C357.847 185.592 357.454 186.848 356.773 188.116C355.596 190.318 355.758 193.475 357.835 194.859C358.92 195.573 360.363 195.723 361.24 196.668C363.399 199.008 360.121 203.422 362.256 205.785C362.695 206.269 363.306 206.568 363.918 206.787C364.553 207.006 365.234 207.156 365.903 207.294Z" fill="#260E14"></path>
            <path d="M371.04 244.257C371.04 244.257 370.002 246.24 368.166 249.167H341.284C343.581 245.813 346.801 241.226 350.333 236.65C352.538 233.781 354.87 230.899 357.155 228.341C357.155 228.318 357.155 228.318 357.155 228.318C360.814 224.249 365.535 220.561 367.185 219.812L367.208 219.8C368.328 219.8 371.04 244.257 371.04 244.257Z" fill="#3C68B8"></path>
            <path d="M412.074 215.915C412.074 215.915 404.214 231.924 395.568 230.103C386.923 228.282 379.871 214.567 379.871 214.567L387.062 210.798C388.02 210.302 388.654 209.346 388.747 208.274L388.828 207.34L389.52 198.869L402.032 200.252L402.436 205.047L402.771 208.885C402.863 209.911 403.429 210.81 404.306 211.317L412.074 215.915Z" fill="#974034"></path>
            <path d="M402.425 205.047C399.943 207.237 396.619 208.585 392.187 208.09C390.952 207.951 389.821 207.698 388.816 207.341L389.509 198.869L402.021 200.252L402.425 205.047Z" fill="#662C24"></path>
            <path d="M408.819 186.295C408.819 186.295 411.531 184.036 412.974 185.822C414.417 187.62 412.166 195.977 406.614 195.17L408.819 186.295Z" fill="#974034"></path>
            <path d="M381.013 175.473C383.864 169.434 394.31 169.526 394.31 169.526C394.31 169.526 395.972 174.424 408.992 181.697C408.992 181.697 410.354 185.443 408.427 191.793C406.499 198.132 402.113 206.257 392.186 205.174C382.248 204.091 379.743 195.205 379.235 188.6C378.727 181.973 381.013 175.473 381.013 175.473Z" fill="#974034"></path>
            <path d="M395.025 190.283C395.036 190.283 395.036 190.306 395.025 190.306C395.014 190.306 395.014 190.283 395.025 190.283Z" fill="#594E8A"></path>
            <path d="M399.353 184.843C399.434 184.843 399.527 184.855 399.619 184.878C400.577 185.154 400.484 186.468 400.092 187.16C399.907 187.494 399.584 187.771 399.169 187.713C398.719 187.655 398.465 187.252 398.361 186.849C398.176 186.134 398.361 184.751 399.353 184.843Z" fill="#260E14"></path>
            <path d="M386.947 183.483C386.866 183.471 386.774 183.46 386.681 183.46C385.689 183.529 385.493 184.82 385.724 185.581C385.827 185.949 386.093 186.284 386.497 186.33C386.947 186.376 387.281 186.03 387.478 185.661C387.812 184.993 387.928 183.598 386.947 183.483Z" fill="#260E14"></path>
            <path d="M425.993 221.021L422.715 249.166H363.769C363.203 246.838 363.18 244.418 364.473 242.516C371.733 231.832 367.197 219.8 367.197 219.8L367.22 219.788L377.25 215.213L382.917 212.631C382.941 212.735 382.975 212.827 382.998 212.931C383.021 213.011 383.056 213.103 383.079 213.196C383.345 214.083 383.598 214.97 383.899 215.835C384.06 216.319 384.245 216.803 384.441 217.276C385.884 220.641 388.331 223.246 394.552 223.246C397.415 223.246 399.804 222.185 401.743 220.745C402.32 220.318 402.851 219.857 403.336 219.373C403.844 218.889 404.305 218.382 404.721 217.886C406.325 215.962 407.306 214.083 407.676 213.334C407.78 213.115 407.826 213 407.826 213L416.182 216.688L425.993 221.021Z" fill="#4376CF"></path>
            <path d="M391.342 187.16C391.677 186.353 391.666 185.304 392.174 184.624C392.197 184.589 392.243 184.578 392.278 184.612C392.959 185.269 392.532 186.491 392.243 187.263C392.047 187.805 391.793 188.335 391.55 188.854C391.469 189.027 391.065 189.569 391.112 189.776C391.227 190.329 392.243 190.306 392.612 190.272C393.247 190.203 393.247 191.205 392.612 191.263C391.712 191.344 389.876 190.894 390.096 189.718C390.257 188.854 390.996 187.967 391.342 187.16Z" fill="#662C24"></path>
            <path d="M410.399 187.966C410.642 187.874 410.873 188.255 410.665 188.416C410.122 188.842 409.58 189.257 409.13 189.764C409.615 189.753 410.122 189.868 410.526 190.018C410.85 190.133 410.826 190.663 410.446 190.652C409.845 190.629 409.118 190.744 408.541 190.606C408.322 190.975 408.137 191.366 407.918 191.747C407.71 192.116 407.168 191.862 407.248 191.47C407.572 189.972 408.991 188.497 410.399 187.966Z" fill="#662C24"></path>
            <path d="M397.012 180.429C398.039 179.944 399.194 180.175 400.255 180.475C401.19 180.751 402.622 181.201 403.037 182.146C403.164 182.434 403.014 182.757 402.679 182.769C401.744 182.815 400.786 182.1 399.886 181.846C398.94 181.581 397.912 181.57 397.024 181.132C396.747 181.016 396.747 180.555 397.012 180.429Z" fill="#260E14"></path>
            <path d="M383.957 179.161C385.215 177.847 388.204 178.412 389.554 179.322C389.981 179.611 389.878 180.463 389.266 180.394C388.285 180.29 387.362 179.968 386.369 179.991C385.55 180.014 384.788 180.221 384.038 179.806C383.807 179.668 383.784 179.345 383.957 179.161Z" fill="#260E14"></path>
            <path d="M391.389 193.199C391.262 193.199 391.262 193.406 391.389 193.406C391.516 193.406 391.516 193.199 391.389 193.199Z" fill="#662C24"></path>
            <path d="M396.088 193.833C394.911 194.167 393.849 194.812 392.614 194.974C392.014 195.043 391.379 195.031 390.779 194.951C390.479 194.904 390.179 194.847 389.89 194.755C389.59 194.662 389.267 194.524 388.944 194.57C388.759 194.593 388.644 194.755 388.736 194.928C389.036 195.504 389.925 195.734 390.514 195.873C391.218 196.057 391.933 196.103 392.66 196.034C394.022 195.907 395.673 195.446 396.308 194.121C396.377 193.971 396.261 193.775 396.088 193.833Z" fill="#662C24"></path>
            <path d="M455.139 249.167H434.755C435.551 244.153 436.544 238.471 437.49 233.204C439.222 223.592 440.826 215.42 440.826 215.42L442.442 215.801L453.765 218.498L454.839 218.751C454.827 218.74 455.762 234.956 455.139 249.167Z" fill="#4376CF"></path>
            <path d="M459.892 201.613C459.5 200.933 458.749 200.495 458.138 200.068C457.491 199.619 456.822 199.215 456.118 198.87C455.448 198.535 454.767 198.236 454.063 197.982C453.371 197.729 452.597 197.464 451.847 197.452C451.824 197.452 451.801 197.498 451.824 197.521C452.436 197.867 453.128 198.063 453.775 198.328C454.525 198.639 455.264 198.997 455.968 199.4C456.626 199.78 457.261 200.184 457.872 200.622C458.461 201.048 459.015 201.636 459.696 201.912C459.869 201.97 459.961 201.739 459.892 201.613Z" fill="#662C24"></path>
            <path d="M450.44 205.162C450.428 204.379 450.301 203.607 450.059 202.892C449.851 202.293 449.516 201.463 448.905 201.255C448.812 201.221 448.72 201.348 448.755 201.44C448.893 201.739 449.112 201.97 449.262 202.258C449.412 202.535 449.539 202.834 449.632 203.146C449.851 203.837 449.944 204.598 449.92 205.358C449.886 206.822 449.424 208.263 448.835 209.634C448.766 209.796 448.962 209.853 449.055 209.738C450.082 208.459 450.475 206.741 450.44 205.162Z" fill="#662C24"></path>
            <path d="M324.767 195.561C327.387 198.27 329.257 200.667 329.903 201.52C329.95 201.578 329.984 201.647 330.019 201.681C330.019 201.681 330.019 201.681 330.019 201.693C330.053 201.751 330.088 201.785 330.111 201.82C330.1 201.785 330.065 201.727 330.019 201.67C329.996 201.612 329.95 201.555 329.915 201.497C328.611 199.319 323.578 190.513 325.009 189.983C326.233 189.522 327.191 191.85 329.165 194.835C330.919 197.463 332.039 198.95 332.5 199.538C332.512 199.561 332.535 199.572 332.535 199.584V199.595C332.674 199.745 332.743 199.837 332.743 199.837L332.604 199.549V199.538L332.57 199.492L331.415 197.244C329.176 193.325 326.914 188.104 327.041 187.125C327.191 186.157 327.895 185.154 329.996 188.508C331.808 191.424 335.144 196.506 336.067 197.901C336.079 197.913 336.079 197.924 336.09 197.924C336.206 198.109 336.286 198.224 336.309 198.258L336.171 197.901L336.159 197.866L334.82 194.282C331.923 187.079 331.589 184.82 332.731 185.177C334.105 185.615 341.527 200.045 341.527 200.045C341.527 200.045 342.715 195.723 344.124 193.752C345.543 191.781 346.213 194.04 345.936 194.858C345.647 195.677 344.424 198.108 345.936 202.557C346.94 205.519 346.201 210.487 346.201 210.487L348.013 217.782C347.644 217.909 347.425 218.289 347.436 218.693C347.425 218.681 347.425 218.67 347.413 218.658C347.39 218.439 347.471 218.289 347.506 218.232C347.54 218.186 347.529 218.197 347.506 218.232C347.482 218.266 347.425 218.313 347.332 218.405C347.136 218.566 346.94 218.739 346.744 218.9C346.236 219.315 345.716 219.73 345.185 220.134C344.043 221.009 342.935 221.713 341.619 222.335C339.968 223.119 338.249 223.787 336.506 224.352C336.136 218.843 336.125 214.29 335.963 213.806C335.963 213.806 332.835 211.42 327.214 202.442C322.516 195.02 323.948 194.709 324.767 195.561Z" fill="#974034"></path>
            <path d="M355.17 249.167H334.787C334.163 234.956 335.098 218.751 335.098 218.751L336.172 218.498L347.506 215.801L349.122 215.42C349.122 215.42 351.119 225.643 353.058 236.65C353.808 240.88 354.547 245.225 355.17 249.167Z" fill="#4376CF"></path>
            <path d="M330.043 201.613C330.436 200.933 331.186 200.495 331.797 200.068C332.444 199.619 333.113 199.215 333.817 198.87C334.487 198.535 335.168 198.236 335.872 197.982C336.564 197.729 337.338 197.464 338.088 197.452C338.111 197.452 338.134 197.498 338.111 197.521C337.499 197.867 336.807 198.063 336.16 198.328C335.41 198.639 334.671 198.997 333.967 199.4C333.309 199.78 332.675 200.184 332.063 200.622C331.474 201.048 330.92 201.636 330.239 201.912C330.066 201.97 329.974 201.739 330.043 201.613Z" fill="#662C24"></path>
            <path d="M339.484 205.162C339.495 204.379 339.622 203.607 339.865 202.892C340.073 202.293 340.407 201.463 341.019 201.255C341.111 201.221 341.204 201.348 341.169 201.44C341.031 201.739 340.811 201.97 340.661 202.258C340.511 202.535 340.384 202.834 340.292 203.146C340.073 203.837 339.98 204.598 340.003 205.358C340.038 206.822 340.5 208.263 341.088 209.634C341.158 209.796 340.961 209.853 340.869 209.738C339.842 208.459 339.461 206.741 339.484 205.162Z" fill="#662C24"></path>
            <path d="M404.987 211.121C404.941 210.51 403.994 210.499 404.017 211.121C404.317 217.679 402.875 224.548 397.889 229.193C396.78 230.219 395.522 231.129 394.149 231.763C392.51 232.524 390.859 232.455 389.324 231.486C387.951 230.61 387.027 229.181 386.346 227.729C385.642 226.208 385.146 224.583 384.823 222.946C384.442 221.056 384.326 219.108 384.442 217.183C384.557 215.224 385.088 213.391 385.458 211.478C385.504 211.259 385.192 211.098 385.077 211.317C384.292 212.896 383.992 214.751 383.807 216.48C383.611 218.301 383.634 220.145 383.865 221.955C384.096 223.776 384.534 225.562 385.192 227.268C385.804 228.847 386.6 230.403 387.847 231.567C389.047 232.685 390.698 233.457 392.36 233.331C394.103 233.192 395.73 232.224 397.104 231.198C399.724 229.25 401.755 226.588 403.059 223.603C404.779 219.707 405.333 215.362 404.987 211.121Z" fill="#F4F5F7"></path>
            <path d="M408.37 194.098C408.324 193.948 408.254 193.822 408.139 193.706C408.081 193.66 408.023 193.614 407.966 193.568C407.827 193.487 407.677 193.453 407.515 193.453C407.504 193.453 407.492 193.453 407.481 193.453C407.365 193.453 407.25 193.476 407.146 193.534C407.042 193.568 406.938 193.626 406.857 193.718C406.777 193.799 406.707 193.891 406.673 194.006C406.615 194.11 406.592 194.225 406.592 194.34C406.603 194.421 406.615 194.502 406.626 194.571C406.673 194.721 406.742 194.847 406.857 194.963C406.915 195.009 406.973 195.055 407.031 195.101C407.169 195.181 407.319 195.216 407.469 195.216C407.481 195.216 407.492 195.216 407.504 195.216C407.631 195.216 407.735 195.193 407.839 195.135C407.943 195.101 408.047 195.043 408.127 194.951C408.208 194.87 408.277 194.778 408.312 194.663C408.37 194.559 408.393 194.444 408.393 194.329C408.393 194.248 408.381 194.179 408.37 194.098Z" fill="#F4F5F7"></path>
            <path d="M577.023 54.861C577.023 54.8725 577.023 54.8725 577.023 54.861L522 54.8725C522 54.8725 533.946 38.8983 531.603 0H586.626C588.923 38.3451 577.357 54.4 577.023 54.861Z" fill="#FED5CF"></path>
            <path d="M573.732 25.0563C573.513 24.0996 572.694 23.5003 571.77 23.3159C570.731 23.0969 569.646 23.2698 568.619 23.4427C567.453 23.6386 566.311 23.9498 565.191 24.3532C562.929 25.16 560.805 26.301 558.797 27.6034C554.526 30.3925 550.832 33.9539 546.735 36.9736C545.8 37.6651 544.819 38.4719 543.757 38.9559C543.168 39.2325 542.002 39.6244 541.495 39.0136C541.114 38.5641 541.391 37.8725 541.552 37.3885C541.725 36.8583 541.922 36.3397 542.129 35.821C542.545 34.7837 543.03 33.7695 543.561 32.7898C545.661 28.9173 548.582 25.5518 551.86 22.6359C555.218 19.6393 558.97 17.265 562.802 14.9369C564.487 13.9111 566.218 12.4589 566.114 10.2922C566.068 9.39317 565.699 8.52876 564.949 8.01012C564.025 7.37622 562.871 7.44537 561.821 7.6413C557.515 8.45961 553.279 10.3382 549.563 12.5972C545.765 14.9023 542.314 17.8183 539.486 21.2529C538.805 22.0827 538.17 22.9356 537.593 23.8345C537.466 24.0305 537.778 24.284 537.928 24.0881C540.721 20.6881 543.768 17.5993 547.381 15.0522C550.959 12.5281 554.93 10.5803 559.12 9.32401C560.182 9.0013 561.278 8.66706 562.375 8.51723C563.448 8.3674 564.683 8.54029 565.053 9.71588C565.757 11.9288 563.448 13.4386 561.832 14.3722C558.092 16.5389 554.514 18.9593 551.271 21.8176C548.085 24.6298 545.234 27.8685 543.099 31.5451C542.049 33.3661 541.137 35.3024 540.502 37.3078C540.213 38.2183 540.156 39.3017 540.998 39.9356C541.621 40.3966 542.464 40.3736 543.191 40.2007C544.138 39.9702 544.923 39.44 545.719 38.8983C546.746 38.1953 547.739 37.4576 548.72 36.6854C550.705 35.141 552.61 33.5044 554.572 31.9369C558.3 28.9403 562.34 26.0935 567.015 24.8142C568.215 24.48 572.578 23.2237 572.797 25.4251C572.913 26.5546 571.782 27.5342 571.031 28.2258C570.304 28.8942 569.554 29.5396 568.804 30.1735C567.269 31.4644 565.699 32.7207 564.291 34.1498C562.986 35.4637 561.705 36.9851 560.99 38.7254C560.643 39.5783 560.436 40.4773 560.32 41.3993C560.262 41.8373 560.99 41.9295 561.082 41.5031C562.017 37.4922 565.122 34.6454 568.134 32.0868C568.931 31.4068 569.739 30.7383 570.535 30.0468C571.332 29.3552 572.174 28.6522 572.832 27.8224C573.421 27.0386 573.963 26.0474 573.732 25.0563Z" fill="#F8705C"></path>
        </svg>