<svg width="700" height="343" viewBox="0 0 700 343" fill="none" xmlns="http://www.w3.org/2000/svg">
            <path d="M677.628 338.96C678.07 337.606 614.313 334.481 609.13 335.027C587.461 337.319 572.46 342.945 550.035 335.991C513.417 324.662 479.611 337.111 442.68 338.83C412.077 340.262 379.834 342.685 349.544 337.059C312.613 330.209 271.671 330.079 229.557 332.058C192.495 333.803 142.203 350.394 114.414 337.267C82.8738 322.344 38.6241 339.169 0 336.356C28.4928 306.977 55.5531 255.383 73.7322 229C155.382 240.876 283.157 222.176 370.25 233.896C428.043 241.684 537.664 233.115 552.978 232.334C673.851 226.187 700 236.996 700 236.996C700 236.996 679.659 332.683 677.628 338.96Z" fill="#DAB8B0"></path>
            <path opacity="0.3" d="M583.971 231.136C581.107 244.549 577.512 258.821 572.382 274.005C567.85 287.392 562.146 301.56 556.755 315.494C554.671 320.911 551.364 328.386 548.447 335.522C548.967 335.679 549.488 335.835 550.009 335.991C555.843 337.788 561.182 338.752 566.235 339.142C569.829 326.537 570.402 313.541 572.902 304.712C578.424 285.126 585.664 264.056 593.009 243.064C594.415 239.079 595.926 234.99 597.515 230.849C593.191 230.927 588.659 231.005 583.971 231.136Z" fill="#DAB8B0"></path>
            <path opacity="0.3" d="M538.706 233.245C536.492 233.375 534.07 233.531 531.492 233.688C525.866 247.856 519.615 262.858 512.323 278.797C505.603 293.486 498.024 309.061 490.68 324.375C489.377 327.11 487.789 330.339 486.07 333.777C489.091 333.36 492.086 332.996 495.081 332.657C497.894 325.078 500.368 318.046 502.738 312.472C511.958 290.96 522.584 267.832 533.237 244.757C535.034 241.006 536.857 237.152 538.706 233.245Z" fill="#DAB8B0"></path>
            <path opacity="0.3" d="M526.283 234.026C523.991 234.157 521.621 234.313 519.12 234.443C512.792 248.351 505.812 263.118 497.79 278.745C490.263 293.434 481.798 308.983 473.594 324.323C471.745 327.787 469.401 332.032 466.927 336.512C470.104 336.095 473.282 335.626 476.459 335.183C480.132 326.615 483.361 318.619 486.356 312.421C496.8 290.908 508.703 267.78 520.657 244.731C522.48 241.189 524.355 237.621 526.283 234.026Z" fill="#DAB8B0"></path>
            <path opacity="0.5" d="M570.845 231.579C565.115 231.787 559.151 232.047 552.978 232.36C551.832 232.412 550.139 232.516 547.978 232.646C544.384 248.377 539.696 265.072 532.664 282.756C526.413 298.461 518.443 315.025 510.812 331.407C518.417 331.095 526.074 331.329 533.783 332.397C534.435 328.022 535.164 323.959 536.284 320.469C543.889 296.508 554.307 270.75 564.907 245.096C566.73 240.668 568.735 236.136 570.845 231.579Z" fill="#AFB1C4"></path>
            <path opacity="0.3" d="M216.248 231.657C211.065 231.813 205.908 231.995 200.778 232.152C179.734 259.55 158.455 287.027 137.125 312.577C131.473 319.349 122.982 327.917 114.153 337.189C114.231 337.241 114.336 337.267 114.44 337.32C119.466 339.69 125.222 341.096 131.525 341.799C135.302 336.382 138.896 331.251 141.969 327.058C155.486 308.618 168.925 289.892 182.677 272.234C193.615 258.092 204.945 244.601 216.248 231.657Z" fill="#DAB8B0"></path>
            <path opacity="0.3" d="M278.755 229.989C276.359 230.015 273.963 230.067 271.541 230.093C271.463 230.197 271.41 230.302 271.332 230.406C253.778 256.971 236.094 283.589 218.931 308.357C213.8 315.754 206.325 325.39 198.642 335.652C202.392 335.079 206.117 334.506 209.789 334.011C212.524 329.662 215.076 325.573 217.29 322.161C228.645 304.503 240.053 286.584 251.33 269.655C260.55 255.851 269.744 242.647 278.755 229.989Z" fill="#DAB8B0"></path>
            <path opacity="0.3" d="M286.048 229.912C285.917 230.121 285.813 230.303 285.683 230.511C269.613 257.077 253.388 283.72 237.579 308.489C233.333 315.13 227.291 323.595 220.936 332.71C223.879 332.424 226.744 332.215 229.557 332.085C230.052 332.059 230.573 332.033 231.067 332.007C233.099 328.465 235 325.157 236.693 322.292C247.085 304.634 257.503 286.689 267.842 269.786C276.333 255.879 284.849 242.596 293.21 229.86C290.814 229.886 288.444 229.886 286.048 229.912Z" fill="#DAB8B0"></path>
            <path opacity="0.5" d="M234.818 231.058C214.06 260.332 192.964 289.684 171.009 317.005C165.409 323.959 156.502 332.736 147.23 342.216C157.622 341.825 168.795 340.341 180.072 338.596C181.479 336.33 182.833 334.194 184.135 332.241C197.079 312.629 209.815 292.679 223.436 273.875C234.401 258.743 246.121 244.236 258.05 230.354C250.34 230.589 242.579 230.823 234.818 231.058Z" fill="#AFB1C4"></path>
            <path d="M555.918 286.921C559.37 286.67 571.631 280.672 571.032 290.469C571.951 291.291 572.8 292.933 571.631 293.963C569.835 295.563 566.829 295.424 564.728 295.772C561.68 296.287 558.493 296.022 555.417 296.342C552.091 296.69 548.57 296.217 545.286 296.857C542.21 297.456 538.981 297.79 535.989 298.834C534.82 299.237 533.568 299.571 532.371 299.752C531.341 299.905 530.186 300.239 529.184 299.613C524.563 296.732 523.84 286.03 528.251 284.889C530.965 284.179 533.053 285.348 535.711 286.086C537.103 286.475 541.96 286.768 543.379 286.851C545.717 286.99 548.194 287.31 550.519 287.227C552.314 287.157 554.123 287.046 555.918 286.921Z" fill="#B66B2E"></path>
            <path d="M512.998 290.108C512.762 286.74 510.145 281.508 507.39 279.879C504.384 278.098 500.835 281.73 498.163 283.372C493.306 286.379 488.031 288.466 482.687 289.872C477.746 291.166 473.39 293.003 468.255 293.407C466.404 293.546 464.595 293.407 462.744 293.657C461.366 293.852 460.183 294.659 458.861 295.188C457.511 295.731 456.259 295.953 455.27 297.262C454.254 298.598 454.115 301.548 455.159 302.648C454.046 303.496 454.115 304.805 454.227 305.278C454.561 306.642 454.895 307.087 455.869 307.755C456.662 308.284 457.08 309.328 458.123 309.453C459.014 309.55 460.239 309.328 461.129 309.063C464.344 308.131 467.448 306.753 470.677 305.807C474.615 304.652 478.47 303.26 482.311 301.715C484.802 300.713 487.447 300.254 489.979 299.28C492.54 298.292 494.739 296.413 497.411 295.745C502.755 294.395 507.96 292.613 512.998 290.108Z" fill="#D98037"></path>
            <path d="M489.854 206.745C488.184 202.751 484.176 201.137 483.689 196.711C483.466 194.665 482.812 191.367 482.701 189.321C482.59 187.442 480.307 183.49 482.075 182.683C489.047 179.537 494.071 178.382 496.868 177.074C501.252 175.042 503.493 170.798 503.771 165.843C503.883 163.728 503.646 161.696 503.256 159.664C508.044 160.179 510.855 162.433 516.283 161.292C518.857 160.749 522.323 159.831 524.424 157.883C524.563 163.575 523.186 164.883 526.623 169.615C528.836 172.662 536.963 175.571 540.429 176.016C546.107 176.726 538.48 182.947 537.715 188.25C535.586 202.821 529.448 215.75 515.406 222.012C501.6 228.164 494.503 217.823 489.854 206.745Z" fill="#D98037"></path>
            <path d="M445.222 293.587C429.747 283.01 419.935 266.365 437.846 261.814C453.072 257.946 467.142 267.312 481.323 270.29C482.701 265.544 490.272 254.842 490.272 254.842C490.272 254.842 498.399 255.607 500.529 255.621C508.35 255.677 512.915 254.926 520.736 254.091C524.396 253.701 534.751 250.277 534.751 250.277C534.751 250.277 536.741 251.961 539.538 256.401C541.208 259.059 542.864 262.733 542.864 262.733C542.864 262.733 577.156 244.195 587.496 249.303C605.755 258.335 559.008 293.921 553.608 298.75C528.084 321.616 495.894 319.069 470.468 305.834C468.339 304.721 455.563 300.657 445.222 293.587Z" fill="#444368"></path>
            <path d="M400.966 274.618C399.421 274.854 399.811 276.037 400.66 276.803C401.759 277.777 407.966 277.123 409.442 276.998C414.34 276.566 415.078 275.314 419.17 272.113C423.54 268.689 424.945 266.991 430.456 265.586C438.375 263.554 446.405 262.983 454.394 262.12C458.791 261.647 466 261.063 469.521 257.444C474.184 252.629 474.253 244.126 475.687 238.155C478.206 227.634 479.653 214.58 486.055 205.645C489.409 200.955 497.063 183.252 491.051 180.566C486.278 178.437 476.285 183.795 473.14 187.803C469.675 192.229 469.313 197.879 468.269 203.14C466.877 210.182 466.293 217.293 464.762 224.308C463.718 229.109 462.382 234.008 460.698 238.712C460.267 239.923 459.807 241.119 459.334 242.302C456.453 249.386 450.441 248.746 444.346 251.251C439.502 253.241 434.659 255.677 429.621 256.79C419.893 258.947 418.279 256.776 411.905 256.512C409.553 256.414 406.644 256.943 404.237 257.486C401.94 258.001 399.881 259.532 402.706 260.923C404.07 261.591 410.068 259.699 410.137 261.675C410.193 263.387 405.642 265.126 404.278 264.862C402.107 264.444 402.817 260.603 401.105 260.241C400.117 260.033 399.352 262.301 399.227 263.22C399.101 264.138 399.254 264.751 399.616 265.502C399.839 265.947 400.688 267.256 400.702 267.631C400.702 267.798 400.215 268.16 397.946 267.826C397.306 267.729 396.248 268.091 396.04 268.926C395.817 269.83 396.582 270.498 397.167 270.985C397.918 271.612 398.879 272.001 399.811 271.96C399.171 271.987 397.57 272.28 397.153 273.059C396.68 273.922 399.101 274.743 400.966 274.618Z" fill="#D98037"></path>
            <path d="M565.688 233.437C566.579 234.481 567.609 235.302 568.806 235.817C574.233 238.127 581.484 238.656 587.371 239.811C591.908 240.702 596.821 241.551 601.58 240.674C604.642 240.104 608.539 237.905 611.545 238.879C612.909 239.324 614.008 240.73 615.121 241.607C616.332 242.553 619.45 244.961 616.388 245.81C613.966 246.478 613.034 243.151 610.835 243.332C609.248 243.458 609.388 244.668 609.986 245.74C610.835 247.257 612.728 249.261 614.69 247.925C615.33 247.494 616.137 245.768 616.972 245.851C618.114 245.949 617.974 248.245 617.348 248.955C618.322 247.842 620.132 248.454 619.992 249.873C619.839 251.335 617.557 252.726 616.527 253.422C619.088 252.893 620.146 255.176 617.557 256.693C614.231 258.641 609.833 259.796 606.201 260.423C602.735 261.007 599.743 259.949 597.252 257.667C591.142 252.072 586.675 249.094 577.824 249.442C570.336 249.734 563.072 252.963 556.155 249.205C553.163 247.577 551.354 244.627 550.588 241.12C549.725 237.139 548.612 233.451 547.582 229.513C546.97 227.175 546.483 224.865 545.787 222.513C543.282 213.967 541.946 203.182 536.379 196.71C533.192 192.994 530.033 178.201 532.649 176.099C536.351 173.135 541.152 175.529 544.618 177.032C551.089 179.829 554.318 187.609 555.348 194.331C556.35 200.746 557.881 207.148 559.245 213.397C560.469 219.005 561.583 228.608 565.688 233.437Z" fill="#D98037"></path>
            <path d="M483.592 214.357C482.798 215.262 481.657 219.173 480.78 220.119C476.967 217.823 470.746 214.594 464.831 208.888C467.072 197.253 467.392 195.207 470.496 188.987C474.977 179.968 487.071 181.416 492.777 177.742C503.966 183.211 528.418 176.531 533.749 173.093C542.6 173.761 547.345 176.085 551.117 180.483C554.067 183.935 556.586 193.649 558.089 198.923C555.779 206.786 549.169 211.323 542.836 212.743C542.127 210.975 540.568 207.705 540.025 205.951C546.162 226.34 540.777 251.015 535.196 250.862C525.844 252.072 525.482 255.844 520.152 257.347C510.507 260.061 499.429 253.575 490.133 256.081C475.687 262.385 481.574 228.427 483.592 214.357Z" fill="#7E85AC"></path>
            <path d="M490.926 147.403C489.993 146.025 489.117 144.633 488.323 143.269C485.707 138.802 484.037 132.108 486.055 127.084C488.142 121.893 493.222 118.831 495.143 113.292C497.355 106.932 506.081 104.149 512.066 103.564C521.001 102.701 528.571 109.576 534.611 115.282C540.679 121.03 542.057 138.44 537.005 144.995C534.973 147.639 532.078 149.49 530.422 152.427C528.655 155.544 527.416 158.314 524.995 161.153C521.112 165.69 521.376 166.998 523.937 172.676C529.727 185.563 532.315 205.812 522.921 217.391C513.026 213.314 502.616 204.755 502.588 193.023C502.56 184.937 514.988 172.704 514.195 166.191C513.652 161.723 503.242 160.735 499.805 157.729C496.52 154.89 493.487 151.188 490.926 147.403Z" fill="#18173E"></path>
            <path opacity="0.5" d="M348.019 283.401L352.068 312.579C358.262 319.698 374.349 316.444 375.477 312.671C375.477 312.671 378.676 286.858 379.342 283.234C379.323 283.234 378.417 278.279 363.791 278.371C348.629 278.427 348.019 283.401 348.019 283.401Z" fill="white"></path>
            <path d="M350.478 287.209L353.492 310.656C353.492 310.656 357.042 314.003 363.791 313.762C369.856 313.559 373.868 311.34 373.868 311.34L377.308 287.062L350.478 287.209Z" fill="#AAACBF"></path>
            <path d="M376.735 285.601C378.806 288.023 374.738 290.575 367.637 291.278C360.537 291.98 353.085 290.594 351.014 288.171C348.925 285.749 353.011 283.197 360.111 282.495C367.212 281.792 374.664 283.179 376.735 285.601Z" fill="#C2C5DA"></path>
            <path d="M379.12 282.273C377.641 279.462 369.524 277.595 360.999 278.075C352.475 278.575 346.762 281.256 348.241 284.066C349.72 286.877 357.837 288.745 366.362 288.264C374.886 287.765 380.6 285.083 379.12 282.273ZM366.214 287.894C357.874 288.356 349.979 286.6 348.574 283.992C347.168 281.385 352.808 278.889 361.147 278.445C369.487 277.983 377.382 279.74 378.787 282.347C380.174 284.954 374.553 287.432 366.214 287.894Z" fill="white"></path>
            <path opacity="0.3" d="M353.51 296.326L355.267 309.214C356.376 310.064 357.837 310.675 359.594 311.155L358.651 297.361C357.097 295.734 354.564 295.512 353.51 296.326Z" fill="white"></path>
            <path opacity="0.3" d="M373.702 296.954L371.909 309.713C370.799 310.563 369.098 311.044 367.748 311.192L368.358 297.527C369.912 295.9 372.648 296.159 373.702 296.954Z" fill="white"></path>
            <path opacity="0.3" d="M360.962 297.454L361.369 311.414C362.7 311.692 364.771 311.525 366.01 311.451L366.306 297.454C364.901 296.159 362.33 296.344 360.962 297.454Z" fill="white"></path>
            <path opacity="0.4" d="M348 283.327L352.068 312.561C358.262 319.679 374.349 316.425 375.477 312.653C375.477 312.653 378.676 286.821 379.323 283.197C379.305 283.197 378.584 288.504 362.719 288.19C348.536 287.912 348 283.327 348 283.327Z" fill="white"></path>
            <path d="M58.1153 281.71C58.5682 281.534 62.9205 279.092 62.9205 279.092C58.9438 277.325 53.3542 276.64 48.792 276.662C44.7489 276.684 41.1367 276.817 37.1047 277.203C35.5582 277.358 31.9128 277.966 31.5151 278.971C31.3384 279.435 32.3215 280.031 33.5808 280.749C38.2646 283.467 55.5193 282.727 58.1153 281.71Z" fill="#444368"></path>
            <path d="M44.7158 281.457C44.8705 277.635 43.5891 273.89 41.667 270.41C41.203 269.571 40.728 268.698 40.0431 267.936C39.8774 267.748 38.7617 265.759 38.8391 265.771C37.635 265.66 36.464 266.168 35.2489 266.201C35.1385 266.201 34.9838 266.168 35.0169 266.102C35.6908 265.793 37.2815 265.064 37.4693 264.5C37.6571 263.926 36.5193 262.777 36.221 262.214C35.039 260.004 32.9512 257.961 31.3826 255.851C31.3163 255.762 31.228 255.663 31.0844 255.652C30.996 255.641 30.9076 255.663 30.8303 255.685C30.278 255.84 29.7256 255.994 29.1733 256.149C29.4716 255.641 29.9907 255.188 30.6535 254.868C29.4826 253.697 28.3669 252.658 26.9308 251.631C25.55 250.648 24.0587 249.731 22.5343 248.847C22.2692 248.693 21.982 248.538 21.6506 248.538C20.1814 248.527 21.6395 252.382 21.7831 252.89C21.8052 252.956 21.8273 253.023 21.8936 253.056C21.9709 253.089 22.0704 253.089 22.1587 253.089C23.0314 253.045 23.9151 253.001 24.7878 252.956C24.125 253.122 23.4843 253.343 22.8878 253.597C22.7221 253.675 22.5454 253.752 22.457 253.873C22.3023 254.072 22.4128 254.304 22.5343 254.514C23.1419 255.597 23.7052 256.701 24.2686 257.795C24.4564 258.148 24.6773 259.054 25.1744 259.198C25.6936 259.341 27.2843 259.043 27.914 259.043C27.0634 259.308 26.3233 259.717 25.793 260.225C25.7157 260.302 25.6384 260.38 25.6163 260.479C25.5942 260.579 25.6384 260.689 25.6936 260.777C26.6547 262.556 28.157 264.279 29.4384 265.958C30.1785 266.941 30.9297 267.914 31.6919 268.886C32.1117 269.427 32.7745 270.841 33.8129 270.973C34.0669 271.007 34.3321 270.973 34.5861 270.94C35.2931 270.852 35.989 270.764 36.696 270.675C36.6739 271.029 36.2873 271.327 35.8344 271.526C35.3925 271.725 34.8844 271.846 34.4315 272.045C34.332 272.089 34.2326 272.133 34.1884 272.2C34.1443 272.277 34.1774 272.365 34.2105 272.443C34.5972 273.304 35.1384 274.011 36.0885 274.641C37.0937 275.304 37.7454 276.232 38.5629 277.005C39.4908 277.878 40.4739 278.706 41.5344 279.479C41.91 279.733 44.7269 281.203 44.7158 281.457Z" fill="#3D5010"></path>
            <path d="M46.3065 281.279C49.6095 278.617 51.863 275.502 53.4758 272.343C53.8624 271.581 54.2711 270.796 54.4368 270.001C54.481 269.813 55.3868 268.001 55.431 268.024C54.7019 267.515 53.4758 267.46 52.6252 267.04C52.5478 267.007 52.4705 266.919 52.5478 266.886C53.2659 266.908 54.967 266.963 55.5636 266.632C56.1711 266.3 56.3589 265.063 56.624 264.566C57.6735 262.578 57.9496 260.368 58.6456 258.303C58.6787 258.214 58.7008 258.115 58.6124 258.048C58.5572 258.015 58.4799 257.993 58.4025 257.982C57.8944 257.894 57.3862 257.805 56.8892 257.717C57.5188 257.463 58.2479 257.33 58.977 257.341C59.1647 256.093 59.2642 254.944 59.1427 253.707C59.0211 252.514 58.7671 251.332 58.4688 250.15C58.4136 249.951 58.3473 249.73 58.1264 249.609C57.1322 249.068 54.9008 252.337 54.5804 252.746C54.5362 252.801 54.5031 252.857 54.5252 252.901C54.5473 252.956 54.6136 252.989 54.6909 253.022C55.3316 253.309 55.9612 253.586 56.6019 253.873C56.0054 253.751 55.3868 253.685 54.7682 253.652C54.5915 253.641 54.4037 253.641 54.238 253.685C53.9729 253.773 53.8513 253.972 53.7519 254.16C53.2548 255.154 52.7135 256.137 52.1833 257.121C52.0066 257.441 51.399 258.159 51.6199 258.446C51.8519 258.733 53.1885 259.098 53.6194 259.33C52.824 259.208 51.9734 259.242 51.1781 259.407C51.0566 259.429 50.935 259.462 50.8467 259.518C50.7473 259.584 50.692 259.672 50.6478 259.761C49.8193 261.373 49.4106 263.13 48.8583 264.787C48.5379 265.748 48.2397 266.709 47.9414 267.681C47.7757 268.211 47.0467 269.46 47.6321 269.924C47.7757 270.034 47.9856 270.111 48.1844 270.178C48.7368 270.365 49.3002 270.553 49.8525 270.741C49.5432 270.984 49.024 271.05 48.56 271.039C48.085 271.017 47.6321 270.929 47.1682 270.896C47.0687 270.896 46.9583 270.885 46.8699 270.918C46.7705 270.951 46.7153 271.028 46.6821 271.094C46.2182 271.846 46.0083 272.542 46.1187 273.326C46.2513 274.165 45.9199 275.049 45.8315 275.889C45.7321 276.839 45.71 277.789 45.7984 278.717C45.8315 279.048 46.5275 281.103 46.3065 281.279Z" fill="#3D5010"></path>
            <path d="M24.4343 262.257C24.8872 264.953 26.3454 267.493 28.2012 269.813C28.6431 270.366 29.1181 270.951 29.7035 271.448C29.8471 271.57 30.9297 272.895 30.8745 272.895C31.7361 272.895 32.4873 272.464 33.3489 272.365C33.4262 272.354 33.5367 272.376 33.5257 272.42C33.0948 272.685 32.0786 273.293 32.0233 273.702C31.9681 274.11 32.9512 274.85 33.2384 275.226C34.3983 276.706 36.1658 278.01 37.5908 279.391C37.646 279.446 37.7234 279.512 37.8338 279.512C37.9001 279.512 37.9553 279.49 38.0106 279.468C38.3751 279.324 38.7396 279.181 39.1152 279.037C38.9827 279.413 38.6734 279.755 38.2536 280.031C39.2478 280.782 40.1978 281.445 41.3577 282.064C42.4734 282.671 43.6664 283.213 44.8705 283.743C45.0804 283.831 45.3013 283.931 45.5333 283.909C46.5717 283.82 44.9699 281.213 44.8042 280.86C44.7821 280.816 44.76 280.771 44.6937 280.749C44.6385 280.727 44.5612 280.738 44.4949 280.749C43.8873 280.838 43.2687 280.926 42.6612 281.014C43.103 280.849 43.5228 280.661 43.9094 280.44C44.0199 280.374 44.1304 280.307 44.1746 280.219C44.2519 280.075 44.1414 279.91 44.031 279.777C43.4455 279.048 42.8821 278.319 42.3298 277.579C42.153 277.336 41.8548 276.717 41.4902 276.651C41.1036 276.585 40.021 276.894 39.5792 276.927C40.1426 276.695 40.6065 276.353 40.9048 275.966C40.949 275.911 40.9931 275.845 40.9931 275.778C40.9931 275.701 40.9379 275.635 40.8937 275.568C39.9548 274.386 38.6402 273.271 37.4914 272.166C36.8286 271.525 36.1437 270.885 35.4699 270.255C35.0943 269.902 34.4204 268.952 33.6693 268.918C33.4815 268.907 33.3047 268.952 33.128 268.985C32.6419 269.095 32.1559 269.195 31.6809 269.305C31.6477 269.062 31.8797 268.819 32.1669 268.653C32.4541 268.488 32.7966 268.366 33.0838 268.2C33.1501 268.167 33.2053 268.123 33.2274 268.079C33.2495 268.024 33.2164 267.957 33.1722 267.913C32.7745 267.328 32.2884 266.875 31.5262 266.488C30.7198 266.079 30.1233 265.472 29.4384 264.986C28.6541 264.434 27.8367 263.914 26.975 263.439C26.6657 263.296 24.4675 262.445 24.4343 262.257Z" fill="#546E17"></path>
            <path d="M50.6921 273.47C50.9903 272.873 51.2996 272.288 51.5868 271.691C51.5979 271.669 51.6089 271.647 51.6421 271.625C51.6973 271.603 51.7525 271.625 51.8078 271.647C52.3822 271.923 52.8572 272.277 53.1996 272.685C53.045 272.409 53.1333 272.089 52.9235 271.835C52.8461 271.735 52.7246 271.647 52.6252 271.559C52.3711 271.305 52.2938 270.984 52.3269 270.675C52.4264 269.769 53.3543 268.885 54.1275 268.145C54.5804 267.714 55.0334 267.339 55.6299 267.007C56.1601 266.72 56.3589 266.223 56.9776 265.991C57.2758 265.881 57.6845 265.859 57.9497 266.002C58.0601 266.057 58.1374 266.135 58.2148 266.212C58.5904 266.588 58.9549 266.952 59.3305 267.328C59.0764 266.941 58.8334 266.555 58.7119 266.146C58.6235 265.814 58.5793 265.362 58.8334 265.052C59.0543 264.776 59.5514 264.588 59.938 264.4C60.8549 263.937 61.7939 263.495 62.766 263.086C64.0915 262.523 65.627 262.147 66.8974 261.573C66.9416 261.55 66.9857 261.528 67.041 261.528C67.1625 261.517 67.2509 261.595 67.3171 261.661C67.7369 262.114 67.9578 262.655 68.4218 263.086C68.234 262.556 68.0683 261.23 69.0404 260.998C70.0788 260.744 71.2608 260.49 72.3433 260.346C72.4428 260.335 72.5532 260.324 72.6526 260.346C72.741 260.368 72.8073 260.402 72.8736 260.446C73.437 260.832 73.4811 261.418 73.7683 261.915C74.0666 261.55 73.912 261.109 74.0003 260.7C74.0224 260.6 74.0556 260.501 74.1329 260.424C74.5085 260.037 75.7346 260.037 76.3422 260.026C77.4579 260.015 78.5626 260.059 79.6562 260.181C79.1038 260.623 78.4963 261.031 77.8887 261.451C77.4137 261.771 76.8393 261.981 76.3533 262.302C75.4253 262.898 74.7404 263.694 73.5806 264.124C73.0061 264.345 72.3433 264.456 71.7689 264.666C70.7637 265.03 70.0125 265.671 69.1398 266.146C68.6869 266.389 68.3445 266.72 67.9026 266.974C67.3724 267.284 66.809 267.538 66.334 267.88C65.7375 268.322 65.5497 268.885 64.9863 269.305C64.4561 269.703 64.1468 270.41 63.4398 270.675C62.8212 270.167 62.2026 269.67 61.5729 269.162C61.4956 269.67 61.9596 270.134 62.2468 270.598C62.4235 270.885 62.534 271.194 62.5892 271.503C62.6003 271.592 62.6113 271.691 62.5671 271.78C62.5119 271.89 62.3793 271.978 62.2578 272.067C61.7055 272.464 61.4404 272.873 61.1421 273.348C60.8439 273.834 60.2363 274.298 59.7613 274.718C59.4078 275.027 59.0433 275.303 58.6456 275.58C58.3694 275.767 58.1485 276.265 57.7066 275.988C56.8671 275.469 56.0938 274.906 55.4089 274.298C55.7072 275.171 56.1491 276.033 56.7345 276.839C56.8008 276.927 56.856 277.027 56.8008 277.115C56.7677 277.17 56.6903 277.215 56.613 277.248C55.2653 277.922 54.4258 278.717 53.3322 279.534C52.1392 280.429 51.0014 281.357 50.0293 282.351C49.4548 282.948 48.8694 283.61 47.9525 283.842C48.0409 283.82 47.8862 282.384 47.8862 282.219C47.8973 281.688 47.9415 281.158 48.0188 280.628C48.1624 279.634 48.4165 278.651 48.7589 277.678C49.2781 276.231 49.9851 274.851 50.6921 273.47Z" fill="#546E17"></path>
            <path d="M35.7018 254.724C35.8344 255.265 35.9117 256.182 36.6297 256.535C36.9501 256.701 37.414 256.679 37.8228 256.646C37.5797 256.812 37.1047 256.789 36.8838 256.966C36.7623 257.066 36.7402 257.198 36.7402 257.32C36.7181 257.96 37.0937 258.535 37.3478 259.131C37.5245 259.529 37.4803 259.783 38.1431 259.883C38.7175 259.96 39.314 259.938 39.8995 259.916C39.3472 260.037 38.8059 260.17 38.2646 260.313C38.1983 260.335 38.121 260.358 38.0768 260.402C38.0326 260.446 38.0326 260.49 38.0437 260.545C38.121 261.385 38.7728 262.346 39.2809 263.108C39.778 263.108 40.2751 263.108 40.7722 263.097C40.5402 263.34 39.9879 263.373 39.7338 263.605C39.6234 263.716 39.5792 263.837 39.546 263.97C39.303 265.03 39.8774 266.113 40.1536 267.151C40.3193 267.748 40.485 268.355 40.7943 268.919C41.2803 269.802 42.0867 270.542 42.8158 271.316C44.1966 272.774 45.3344 274.376 46.185 276.055C46.1408 274.376 45.7432 272.741 45.235 271.106C44.9809 270.288 44.7158 269.471 44.5059 268.654C44.3071 267.869 44.2298 267.107 43.9978 266.334C43.9868 266.301 43.9757 266.278 43.9536 266.256C43.8873 266.201 43.7437 266.212 43.6333 266.223C43.324 266.256 43.0147 266.245 42.7164 266.19C42.8379 266.058 43.103 266.047 43.3129 265.98C43.6222 265.881 43.81 265.649 43.8652 265.428C43.9536 265.03 43.7769 264.566 43.7216 264.169C43.6554 263.716 43.6001 263.263 43.5228 262.81C43.3792 261.904 43.2135 261.009 42.9815 260.114C42.9263 259.883 42.6833 259.75 42.6722 259.507C42.6612 259.231 42.6501 258.944 42.6501 258.667C42.0536 258.712 41.4571 258.712 40.8606 258.667C41.1036 258.446 41.446 258.303 41.8106 258.181C41.9763 258.126 42.1641 258.082 42.2856 257.983C42.5728 257.773 42.0978 257.231 41.9763 256.999C41.8658 256.812 41.9321 256.348 41.7112 256.237C41.6559 256.204 41.5896 256.204 41.5123 256.204C41.0042 256.171 40.5071 256.16 39.9989 256.16C39.9989 256.127 40.01 256.094 40.01 256.071C40.3524 256.027 40.6949 255.983 41.0042 255.873C42.0094 255.519 41.4239 254.779 40.971 254.293C40.9048 254.227 40.8385 254.16 40.728 254.127C40.6286 254.105 40.5071 254.116 40.3966 254.127C39.9437 254.171 39.4797 254.171 39.0379 254.116C39.2588 253.895 39.5571 253.719 39.9106 253.586C40.1204 253.509 40.3635 253.431 40.4518 253.288C40.6175 252.989 40.1315 252.084 40.0321 251.719C39.8222 250.979 39.3582 250.239 39.0047 249.532C38.3199 248.151 37.5687 246.781 36.7512 245.434C36.6739 245.301 36.5855 245.168 36.4309 245.08C36.1547 244.937 35.7681 245.003 35.503 245.146C34.31 245.776 34.7518 248.482 34.785 249.466C34.8181 250.382 35.8344 250.416 37.0716 250.305C36.5745 250.548 36.0774 250.791 35.5803 251.034C35.4477 251.1 35.3041 251.167 35.2489 251.277C35.2047 251.355 35.2158 251.443 35.2268 251.531C35.2931 252.028 35.1937 252.526 35.3262 253.023C35.3483 253.1 35.3815 253.199 35.4919 253.244C35.5582 253.277 35.6466 253.288 35.735 253.288C36.0774 253.31 36.4419 253.277 36.7512 253.376C36.453 253.509 36.1547 253.63 35.8565 253.763C35.8012 253.785 35.735 253.818 35.7018 253.851C35.6576 253.895 35.6466 253.939 35.6466 253.995C35.6134 254.26 35.6355 254.492 35.7018 254.724Z" fill="#546E17"></path>
            <path d="M43.1141 260.347C43.1031 260.899 42.9374 261.816 43.5449 262.247C43.8211 262.446 44.274 262.479 44.6938 262.49C44.4066 262.634 43.9536 262.545 43.6885 262.7C43.5449 262.788 43.4897 262.91 43.4455 263.042C43.2577 263.672 43.4676 264.279 43.567 264.909C43.6333 265.318 43.5228 265.572 44.1414 265.738C44.6827 265.881 45.2682 265.925 45.8537 265.97C45.2792 266.025 44.7159 266.091 44.1525 266.179C44.0752 266.191 43.9978 266.202 43.9426 266.246C43.8874 266.279 43.8763 266.334 43.8653 266.378C43.7217 267.218 44.0973 268.245 44.3955 269.052C44.8816 269.107 45.3787 269.162 45.8647 269.217C45.5664 269.427 45.0252 269.405 44.7159 269.604C44.5723 269.692 44.506 269.814 44.4397 269.935C43.9205 270.952 44.1856 272.1 44.1967 273.161C44.1967 273.768 44.1967 274.387 44.3513 274.984C44.5943 275.912 45.1909 276.74 45.699 277.58C46.6711 279.181 47.356 280.894 47.7316 282.65C48.1292 280.982 48.1734 279.325 48.1182 277.646C48.0851 276.806 48.0519 275.978 48.0519 275.138C48.063 274.343 48.1955 273.581 48.1734 272.785C48.1734 272.752 48.1734 272.73 48.1513 272.697C48.0961 272.631 47.9636 272.631 47.842 272.62C47.5327 272.62 47.2345 272.564 46.9583 272.487C47.113 272.377 47.3781 272.388 47.599 272.343C47.9304 272.277 48.1734 272.078 48.2839 271.857C48.4827 271.471 48.4275 270.996 48.4717 270.598C48.5269 270.145 48.5932 269.692 48.6374 269.239C48.7368 268.334 48.8141 267.417 48.8252 266.511C48.8252 266.279 48.6263 266.124 48.6816 265.881C48.7479 265.605 48.8141 265.329 48.8804 265.053C48.2839 265.031 47.6984 264.964 47.1351 264.843C47.4223 264.655 47.8089 264.545 48.1955 264.467C48.3723 264.434 48.5601 264.401 48.7147 264.335C49.0572 264.158 48.7368 263.573 48.6705 263.329C48.6153 263.131 48.8031 262.689 48.6153 262.545C48.5711 262.512 48.5048 262.501 48.4386 262.49C47.9525 262.402 47.4554 262.324 46.9583 262.269C46.9694 262.236 46.9804 262.214 46.9915 262.181C47.3339 262.181 47.6874 262.17 48.0188 262.103C49.1013 261.871 48.7147 261.076 48.4054 260.546C48.3612 260.468 48.306 260.391 48.2066 260.358C48.1072 260.325 47.9967 260.325 47.8752 260.314C47.4223 260.303 46.9694 260.247 46.5496 260.148C46.8258 259.96 47.1682 259.817 47.5438 259.728C47.7647 259.673 48.0298 259.629 48.1513 259.496C48.3944 259.22 48.1624 258.27 48.1513 257.895C48.1403 257.143 47.8862 256.359 47.7205 255.608C47.4112 254.161 47.0356 252.725 46.5938 251.3C46.5496 251.156 46.4944 251.013 46.3728 250.913C46.1409 250.736 45.7432 250.758 45.4339 250.88C44.0973 251.366 43.81 254.095 43.5781 255.067C43.3571 255.972 44.3513 256.127 45.5996 256.16C45.0473 256.348 44.4949 256.525 43.9426 256.713C43.799 256.757 43.6333 256.812 43.556 256.911C43.4897 256.989 43.4786 257.077 43.4676 257.154C43.3903 257.652 43.1693 258.138 43.1693 258.635C43.1693 258.723 43.1804 258.811 43.2688 258.867C43.324 258.911 43.4124 258.922 43.5007 258.944C43.8321 258.999 44.1967 259.021 44.4728 259.143C44.1414 259.231 43.8211 259.331 43.4897 259.419C43.4234 259.441 43.3571 259.452 43.3129 259.496C43.2577 259.529 43.2356 259.585 43.2246 259.629C43.1472 259.883 43.1141 260.115 43.1141 260.347Z" fill="#546E17"></path>
            <path d="M61.4955 251.697C60.6118 252.205 59.5293 252.791 58.8775 253.431C58.1816 254.116 59.5182 254.768 60.181 255.331C60.2804 255.42 60.3909 255.53 60.3246 255.63C59.3525 255.475 58.3473 255.409 57.342 255.431C57.1653 255.431 56.9665 255.442 56.8118 255.508C56.7013 255.552 56.613 255.63 56.5356 255.707C55.9723 256.237 55.3095 256.69 55.3426 257.342C55.3757 258.027 55.7071 258.723 56.1932 259.308C55.7403 258.999 55.2321 258.734 54.6798 258.513C54.4589 258.424 54.1496 258.358 53.9728 258.48C53.9066 258.524 53.8734 258.59 53.8513 258.656C53.7409 258.977 53.6746 259.297 53.5199 259.606C53.3432 259.938 52.9565 260.092 52.7246 260.38C52.0176 261.23 53.2548 262.07 54.1275 262.655C53.5973 262.49 53.056 262.335 52.4815 262.258C52.3932 262.247 52.2938 262.236 52.2275 262.28C52.1833 262.302 52.1612 262.335 52.1391 262.368C51.0455 264.08 51.2554 266.058 51.8519 267.825V267.836C52.0728 268.477 52.3711 269.095 52.5147 269.758C52.8571 271.327 52.2827 273.017 52.9786 274.508C53.2548 274.475 53.31 274.188 53.2879 273.978C52.8571 268.587 55.8728 263.108 60.9874 259.441C65.3508 256.315 70.7636 254.238 76.0881 252.205C75.4584 251.299 74.2764 250.349 72.8514 249.941C71.0619 249.433 70.8078 251.598 70.863 252.382C70.852 251.553 70.8299 250.725 70.4543 249.941C70.4101 249.852 70.3659 249.764 70.2444 249.72C70.134 249.665 69.9793 249.676 69.8357 249.676C68.7532 249.72 66.2235 249.366 65.3729 249.963C64.9421 250.261 64.8979 251.255 64.7985 251.653C64.6438 252.294 64.5555 252.945 64.5334 253.586C64.7212 253.575 64.7101 253.387 64.6328 253.277C64.2793 252.769 63.9258 252.26 63.5723 251.752C63.3956 251.498 63.1304 251.2 62.6996 251.189C62.4014 251.178 62.1363 251.321 61.9043 251.443C61.7828 251.531 61.6392 251.62 61.4955 251.697Z" fill="#546E17"></path>
            <path d="M62.9096 279.049C62.1363 308.223 66.3119 317.955 46.4391 317.38C28.0024 316.85 31.5925 305.428 31.4931 278.982C31.4931 278.982 43.3792 280.319 47.2234 280.319C51.2333 280.33 62.9096 279.049 62.9096 279.049Z" fill="#9096BB"></path>
            <g opacity="0.4">
                <path opacity="0.4" d="M59.3857 295.751C59.22 295.751 59.0432 295.74 58.8665 295.729C57.2868 295.585 56.4473 294.757 56.0275 294.083C55.5525 293.321 55.4862 292.547 55.442 292.028C55.431 291.929 55.4199 291.796 55.4089 291.708C55.3868 291.686 55.3758 291.675 55.3537 291.664C55.188 291.896 54.9891 292.194 54.8345 292.426C54.1054 293.564 53.0007 295.287 50.9903 295.287H50.9792C48.0629 295.287 47.4112 293.133 47.124 292.205C47.0798 292.039 47.0025 291.807 46.9472 291.697C46.9362 291.697 46.9251 291.686 46.9251 291.686C46.8368 291.851 46.7484 292.072 46.6711 292.238C46.3176 293.044 45.8315 294.149 44.7379 294.823C43.6001 295.53 42.5065 295.729 41.5013 295.431C39.9547 294.967 39.303 293.564 38.8722 292.636C38.7838 292.448 38.6512 292.161 38.5739 292.039C37.9443 291.487 37.6018 291.354 37.4914 291.321C37.2925 291.443 36.9169 291.851 36.6518 292.128C35.6466 293.21 34.1332 294.856 31.4378 294.657L31.725 290.636C32.421 290.692 32.8186 290.338 33.6913 289.388C34.3983 288.626 35.282 287.665 36.6187 287.367C38.8169 286.869 40.6838 288.515 41.2914 289.057C41.8989 289.587 42.2303 290.305 42.5175 290.924C42.5617 291.012 42.617 291.133 42.6722 291.244C42.7716 291.056 42.8931 290.791 42.9705 290.603C43.2798 289.896 43.6664 289.024 44.4507 288.383C45.1687 287.786 46.417 287.223 48.317 287.908C50.1839 288.571 50.692 290.117 50.9571 290.979C51.1228 290.747 51.3106 290.46 51.4432 290.25C52.1502 289.145 53.1223 287.632 54.9008 287.444C56.0717 287.322 57.2316 287.83 58.3473 288.957C59.2973 289.918 59.3857 291.034 59.4409 291.708C59.4409 291.719 59.4409 291.73 59.4409 291.741C59.7723 291.73 60.2363 291.664 60.5897 291.608C61.2746 291.509 62.0479 291.399 62.8101 291.443L62.5892 295.464C62.2246 295.442 61.6833 295.519 61.1642 295.596C60.6008 295.663 59.9932 295.751 59.3857 295.751Z" fill="white"></path>
            </g>
            <path d="M223.297 190.454L150.754 169.847V238.403L222.697 258.828C223.279 258.992 223.771 258.519 223.771 257.754L224.335 192.128C224.353 191.364 223.88 190.618 223.297 190.454Z" fill="#3D1C17"></path>
            <path d="M165.718 173.433L105.808 190.454C105.226 190.618 104.734 191.382 104.752 192.128L105.317 257.754C105.317 258.519 105.808 258.992 106.391 258.828L165.699 241.989V173.433H165.718Z" fill="#54312C"></path>
            <path d="M267.733 188.214C267.733 204.58 221.713 217.832 164.953 217.832C108.193 217.832 62.1729 204.562 62.1729 188.214C62.1729 185.884 61.3901 183.481 63.1559 181.297C73.7871 168.208 116.275 158.578 164.953 158.578C214.614 158.578 257.539 168.135 267.114 181.643C268.498 183.572 267.733 186.157 267.733 188.214Z" fill="#B1B1BD"></path>
            <path d="M267.733 183.991C267.733 200.357 221.713 213.609 164.953 213.609C108.193 213.609 62.1729 200.338 62.1729 183.991C62.1729 167.626 108.193 154.373 164.953 154.373C221.732 154.373 267.733 167.626 267.733 183.991Z" fill="white"></path>
            <g opacity="0.5">
                <path opacity="0.5" d="M430.546 4.50171H299.618V88.2379H430.546V4.50171Z" fill="white"></path>
                <path opacity="0.5" d="M420.475 12.9695H309.71V79.7694H420.475V12.9695Z" fill="#E2E2E2"></path>
                <path opacity="0.5" d="M353.983 42.505C354.682 36.4005 355.648 30.3577 356.635 24.2943C352.565 23.6571 348.105 23.9038 343.891 23.986C342.288 30.4605 344.57 51.5076 333.799 52.4736C326.318 53.1313 326.359 42.505 326.194 37.5515C325.845 26.2058 328.538 22.2595 314.191 22.8761C313.348 34.3246 312.834 52.8641 323.132 60.3046C339.349 71.9792 352.113 58.7425 353.983 42.505Z" fill="#F1BAAF"></path>
                <path opacity="0.5" d="M397.064 41.6009C415.131 25.384 372.091 6.26892 372.769 32.9272C373.098 45.7528 388.308 49.4525 397.064 41.6009Z" fill="#B1B8E5"></path>
                <path opacity="0.5" d="M360.293 56.4613C372.256 45.7322 343.747 33.071 344.22 50.7268C344.446 59.1949 354.518 61.6614 360.293 56.4613Z" fill="white"></path>
                <path opacity="0.5" d="M401.73 60.4901C400.538 60.4489 399.51 60.4695 399.243 60.4695C396.9 60.4901 394.947 60.86 393.467 62.8537C391.843 65.0736 391.638 68.1566 391.658 70.8286C391.658 71.0342 382.553 71.0136 381.895 71.0136C382.08 66.9028 381.484 62.5249 382.882 58.5785C386.212 49.2471 398.256 50.6242 406.025 51.323C406.58 54.2006 406.005 58.0853 405.923 61.045C405.984 60.675 403.662 60.5312 401.73 60.4901Z" fill="#F1BAAF"></path>
                <path opacity="0.2" d="M297.234 23.5136C294.521 21.561 295.508 22.1981 293 20.0605C298.652 12.0651 306.627 5.24122 314.91 0C316.287 3.06252 313.657 0.205539 317.603 4.27519C316.575 5.40565 297.953 20.8827 297.234 23.5136Z" fill="#0E0D3E"></path>
                <path opacity="0.2" d="M432.026 70.9106C432.684 71.2601 434.472 72.4933 435.068 73.0482C434.266 74.8981 435.356 76.2957 437 77.2412C433.937 79.646 430.526 82.8935 427.977 85.8738C425.613 88.628 423.866 92.9649 420.105 93.8281C420.105 93.4376 420.31 92.8005 420.29 92.5538C419.57 92.821 417.166 93.7048 416.508 93.5815C416.117 93.5198 414.124 91.8344 414.062 91.855C416.261 90.4573 432.869 71.3628 432.026 70.9106Z" fill="#0E0D3E"></path>
            </g>
            <path d="M254.135 174.398L211.119 155.193C209.025 154.355 207.951 153.955 206.258 154.192L91.9002 174.617C90.2072 174.853 90.2801 175.381 90.6077 176.455L127.726 200.175C130.256 201.577 131.676 201.795 133.369 201.559L253.735 178.694C256.884 178.166 256.92 175.454 254.135 174.398Z" fill="#18173E"></path>
            <path opacity="0.08" d="M221.222 172.268L197.793 162.402C196.519 161.892 195.882 161.655 194.844 161.801L125.578 174.162C124.54 174.307 124.595 174.617 124.795 175.272L144.656 187.869C146.185 188.725 147.04 188.852 148.078 188.707L220.985 174.853C222.879 174.562 222.915 172.905 221.222 172.268Z" fill="#D6ECEA"></path>
            <path d="M210.627 153.008C210.627 154.829 209.408 156.503 207.878 156.795L93.8116 177.456C91.9548 177.784 90.4621 176.437 90.4621 174.434V81.2658C90.4621 79.2634 91.973 77.4794 93.8116 77.2973L207.878 66.0108C209.389 65.8651 210.627 67.2122 210.627 69.0145V153.008Z" fill="#18173E"></path>
            <path opacity="0.2" d="M204.584 151.279C204.584 151.552 204.329 151.825 204.037 151.88L98.4719 170.466C98.1078 170.539 97.7983 170.339 97.7983 170.047C97.7983 169.756 98.0896 169.447 98.4719 169.392L204.037 150.897C204.347 150.824 204.584 151.006 204.584 151.279Z" fill="#D6ECEA"></path>
            <path opacity="0.2" d="M155.305 74.8578C155.305 75.8772 154.577 76.7874 153.685 76.8785C152.793 76.9695 152.065 76.2231 152.065 75.1855C152.065 74.166 152.793 73.2558 153.685 73.1648C154.577 73.092 155.305 73.8384 155.305 74.8578Z" fill="#D6ECEA"></path>
            <path d="M208.261 142.523L93.3566 161.856V84.8888L208.261 72.8013V142.523Z" fill="#EAEAEA"></path>
            <path d="M218.874 147.401L80.1586 171.595V144.27L218.874 123.154V147.401Z" fill="#444368"></path>
            <g opacity="0.8">
                <path opacity="0.8" d="M202.199 119.493L158.837 125.864V82.3566L202.199 77.6235V119.493Z" fill="#BDBDC9"></path>
                <g opacity="0.8">
                    <path opacity="0.8" d="M200.069 117.362L161.185 122.969V85.3777L200.069 81.0452V117.362Z" fill="#DFE2F3"></path>
                    <path opacity="0.5" d="M186.834 125.3C181.883 128.613 176.859 129.432 171.215 130.014C175.766 127.957 178.442 124.48 179.389 120.366C180.354 116.216 179.225 112.52 183.885 109.171C187.217 106.768 191.058 105.694 194.171 103C197.011 100.524 199.723 97.4655 203.655 97.156C212.684 96.4278 208.006 109.953 203.273 114.031C200.761 116.197 199.96 116.835 197.211 118.619C194.316 120.494 189.765 123.352 186.834 125.3Z" fill="#B1B8E5"></path>
                    <path opacity="0.5" d="M193.497 83.6306C192.987 82.1197 192.532 82.1925 191.021 82.502C187.035 83.3394 183.048 85.8879 179.79 89.0373C177.805 90.9487 175.421 91.4766 173.618 93.5519C172.016 95.3905 170.888 97.848 168.74 98.9221C166.227 100.178 164.061 98.8493 161.567 99.3772C159.182 99.8687 159.201 102.162 157.38 103.491C156.488 104.147 155.341 104.31 154.522 105.148C152.356 107.351 155.36 108.953 156.98 109.044C157.926 109.08 158.891 108.971 159.82 108.734C162.805 107.97 166.446 105.931 168.467 103.054C171.015 99.45 174.711 98.7582 178.151 99.3772C179.717 99.6684 182.302 100.251 183.776 98.7946C184.777 97.8116 185.196 96.4099 186.47 95.7364C187.581 95.1356 188.691 95.0446 189.711 94.1344C192.205 91.9317 194.589 86.871 193.497 83.6306Z" fill="white"></path>
                    <path opacity="0.5" d="M218.073 85.2865C217.581 83.812 217.144 83.8848 215.706 84.1943C211.883 85.0135 208.079 87.5256 204.966 90.6021C203.073 92.4772 200.797 92.9869 199.068 95.0257C197.539 96.8279 196.464 99.2127 194.407 100.269C192.004 101.506 189.947 100.196 187.544 100.724C185.269 101.215 185.287 103.454 183.54 104.747C182.684 105.384 181.592 105.548 180.809 106.367C178.752 108.533 181.61 110.099 183.157 110.172C184.067 110.208 184.978 110.099 185.87 109.862C188.728 109.116 192.205 107.113 194.134 104.31C196.574 100.778 200.105 100.105 203.382 100.705C204.875 100.978 207.35 101.561 208.77 100.123C209.717 99.158 210.136 97.7927 211.337 97.1192C212.393 96.5367 213.467 96.4274 214.432 95.5536C216.835 93.4056 219.11 88.454 218.073 85.2865Z" fill="white"></path>
                </g>
                <g opacity="0.8">
                    <path opacity="0.8" d="M170.214 123.006C170.087 123.006 169.996 122.915 169.996 122.788V83.4306C169.996 83.3032 170.087 83.2122 170.214 83.2122C170.342 83.2122 170.433 83.3032 170.433 83.4306V122.788C170.433 122.915 170.342 123.006 170.214 123.006Z" fill="#BDBDC9"></path>
                </g>
                <g opacity="0.8">
                    <path opacity="0.8" d="M180.663 121.495C180.536 121.495 180.445 121.404 180.445 121.277V82.2656C180.445 82.1381 180.536 82.0471 180.663 82.0471C180.791 82.0471 180.882 82.1381 180.882 82.2656V121.277C180.882 121.386 180.791 121.495 180.663 121.495Z" fill="#BDBDC9"></path>
                </g>
                <g opacity="0.8">
                    <path opacity="0.8" d="M190.93 120.003C190.803 120.003 190.712 119.912 190.712 119.784V81.1372C190.712 81.0097 190.803 80.9187 190.93 80.9187C191.058 80.9187 191.149 81.0097 191.149 81.1372V119.784C191.149 119.894 191.058 120.003 190.93 120.003Z" fill="#BDBDC9"></path>
                </g>
                <g opacity="0.8">
                    <path opacity="0.8" d="M160.074 96.2283C159.965 96.2283 159.874 96.1555 159.856 96.028C159.838 95.9006 159.929 95.7914 160.038 95.7914L201.161 90.8217C201.289 90.8035 201.398 90.8945 201.398 91.0037C201.416 91.1311 201.325 91.2404 201.216 91.2404L160.093 96.2101C160.093 96.2283 160.093 96.2283 160.074 96.2283Z" fill="#BDBDC9"></path>
                </g>
                <g opacity="0.8">
                    <path opacity="0.8" d="M160.074 110.245C159.965 110.245 159.874 110.172 159.856 110.063C159.838 109.936 159.929 109.826 160.038 109.826L201.161 104.347C201.289 104.329 201.398 104.42 201.398 104.529C201.416 104.657 201.325 104.766 201.216 104.766L160.093 110.245C160.093 110.245 160.093 110.245 160.074 110.245Z" fill="#BDBDC9"></path>
                </g>
            </g>
            <g opacity="0.8">
                <path opacity="0.8" d="M148.424 127.394L100.656 134.402V88.692L148.424 83.4856V127.394Z" fill="#BDBDC9"></path>
                <g opacity="0.8">
                    <path opacity="0.8" d="M146.076 125.155L103.26 131.344V91.8594L146.076 87.0718V125.155Z" fill="#DFE2F3"></path>
                    <path opacity="0.5" d="M116.53 80.4456C121.773 76.5317 127.234 75.2392 133.333 74.1833C128.6 76.6773 126.033 80.5002 125.396 84.8145C124.759 89.2017 126.379 92.879 121.573 96.9021C118.059 99.8329 113.8 101.471 110.505 104.748C107.447 107.788 104.588 111.447 99.9282 112.412C88.9694 114.687 93.1927 99.2504 98.5265 94.2261C101.312 91.6047 102.186 90.8037 105.244 88.5828C108.43 86.2709 113.399 82.7757 116.53 80.4456Z" fill="#B1B8E5"></path>
                    <path opacity="0.5" d="M160.712 83.3949C160.184 81.8293 159.692 81.9022 158.09 82.2298C153.849 83.0854 149.644 85.725 146.185 88.9471C144.091 90.9132 141.561 91.4593 139.65 93.5892C137.957 95.4824 136.755 98.0128 134.48 99.1232C131.822 100.416 129.51 99.0504 126.87 99.5965C124.34 100.106 124.358 102.473 122.428 103.838C121.482 104.512 120.262 104.675 119.407 105.531C117.113 107.807 120.299 109.463 122.01 109.536C123.029 109.572 124.03 109.463 125.032 109.208C128.199 108.426 132.058 106.314 134.207 103.347C136.901 99.6329 140.833 98.923 144.474 99.5601C146.13 99.8514 148.879 100.47 150.445 98.9594C151.5 97.94 151.956 96.5018 153.284 95.8101C154.468 95.1911 155.633 95.0819 156.725 94.1717C159.346 91.9508 161.859 86.7444 160.712 83.3949Z" fill="white"></path>
                    <path opacity="0.5" d="M136.737 110.792C136.173 109.208 135.663 109.299 134.006 109.663C129.601 110.646 125.195 113.431 121.591 116.817C119.407 118.874 116.767 119.493 114.765 121.714C112.999 123.68 111.743 126.302 109.376 127.485C106.609 128.868 104.206 127.539 101.439 128.14C98.7995 128.723 98.8177 131.144 96.7971 132.582C95.8141 133.292 94.5398 133.492 93.6478 134.402C91.2448 136.787 94.5762 138.389 96.3784 138.425C97.4342 138.444 98.4901 138.298 99.5277 138.025C102.841 137.133 106.864 134.894 109.103 131.817C111.925 127.958 116.021 127.139 119.807 127.703C121.536 127.958 124.394 128.522 126.033 126.939C127.125 125.865 127.598 124.408 129 123.644C130.22 122.988 131.458 122.843 132.586 121.878C135.317 119.548 137.938 114.178 136.737 110.792Z" fill="white"></path>
                </g>
                <g opacity="0.8">
                    <path opacity="0.8" d="M113.217 131.308C113.09 131.308 112.999 131.217 112.999 131.089V89.7658C112.999 89.6384 113.09 89.5474 113.217 89.5474C113.345 89.5474 113.436 89.6384 113.436 89.7658V131.089C113.436 131.198 113.326 131.308 113.217 131.308Z" fill="#BDBDC9"></path>
                </g>
                <g opacity="0.8">
                    <path opacity="0.8" d="M124.722 129.633C124.595 129.633 124.504 129.542 124.504 129.414V88.4733C124.504 88.3459 124.595 88.2549 124.722 88.2549C124.85 88.2549 124.941 88.3459 124.941 88.4733V129.414C124.941 129.524 124.85 129.633 124.722 129.633Z" fill="#BDBDC9"></path>
                </g>
                <g opacity="0.8">
                    <path opacity="0.8" d="M136.027 127.977C135.899 127.977 135.808 127.886 135.808 127.758V87.218C135.808 87.0905 135.899 86.9995 136.027 86.9995C136.154 86.9995 136.245 87.0905 136.245 87.218V127.758C136.245 127.886 136.154 127.977 136.027 127.977Z" fill="#BDBDC9"></path>
                </g>
                <g opacity="0.8">
                    <path opacity="0.8" d="M102.022 103.255C101.912 103.255 101.821 103.182 101.803 103.055C101.785 102.927 101.876 102.818 101.985 102.818L147.259 97.3388C147.386 97.3206 147.495 97.4116 147.495 97.5208C147.514 97.6482 147.423 97.7574 147.313 97.7574L102.04 103.237C102.04 103.255 102.04 103.255 102.022 103.255Z" fill="#BDBDC9"></path>
                </g>
                <g opacity="0.8">
                    <path opacity="0.8" d="M102.022 117.964C101.912 117.964 101.821 117.891 101.803 117.782C101.785 117.655 101.876 117.545 101.985 117.545L147.259 111.52C147.386 111.502 147.495 111.593 147.495 111.702C147.514 111.829 147.423 111.939 147.313 111.939L102.04 117.964C102.04 117.964 102.04 117.964 102.022 117.964Z" fill="#BDBDC9"></path>
                </g>
            </g>
            <path d="M145.293 102.747C144.31 103.621 143.163 104.258 142.235 105.204C139.85 107.644 141.27 109.81 140.724 112.668C140.396 114.325 139.049 115.271 138.885 116.982C138.703 118.839 139.813 120.423 139.34 122.334C138.903 124.1 136.828 125.793 138.812 127.177C140.268 128.196 141.925 126.831 143.309 128.141C144.474 129.234 145.347 129.98 147.131 128.287C148.278 127.195 148.406 125.356 149.625 124.373C151.118 123.19 152.174 123.135 153.357 121.133C154.559 119.13 155.25 116.855 155.123 114.579C155.05 113.232 154.65 112.34 155.25 110.993C155.942 109.464 157.417 108.499 158.072 106.897C159 104.64 157.926 103.002 157.781 100.89C157.599 98.2139 159.601 94.7551 157.562 92.6981C156.962 92.0791 155.014 91.4238 155.032 90.641C155.032 90.0039 155.833 89.4395 155.924 88.857C156.088 87.9104 155.578 87.5281 154.868 87.5281C155.123 86.363 153.976 86.5087 153.266 86.7453C151.865 87.2186 150.79 88.5657 151.719 90.0403C152.119 90.6774 152.247 91.0779 151.956 91.4056C151.555 91.8607 150.536 92.1337 150.008 92.4796C148.697 93.317 147.714 95.1556 147.368 96.7758C146.968 98.6508 147.441 100.125 146.13 101.837C145.894 102.182 145.602 102.474 145.293 102.747Z" fill="#3D1C17"></path>
            <path d="M148.151 116.419C147.769 115.399 146.822 114.999 146.713 113.852C146.658 113.324 146.513 112.468 146.494 111.94C146.476 111.449 145.93 110.448 146.349 110.229C148.005 109.392 149.189 109.082 149.844 108.736C150.882 108.209 151.409 107.098 151.482 105.824C151.519 105.278 151.464 104.75 151.373 104.24C152.502 104.367 153.157 104.932 154.413 104.641C155.014 104.495 155.815 104.258 156.325 103.749C156.343 105.205 156.015 106.388 156.816 107.59C157.326 108.354 159.692 108.536 160.493 108.627C161.804 108.791 159.565 110.12 159.365 111.485C158.855 115.217 157.417 118.548 154.14 120.223C150.882 121.862 149.225 119.24 148.151 116.419Z" fill="#D98037"></path>
            <path d="M156.306 104.641C156.325 104.349 156.325 104.058 156.325 103.749C155.833 104.258 155.032 104.495 154.413 104.641C153.139 104.95 152.483 104.367 151.373 104.24C151.464 104.768 151.519 105.278 151.482 105.824C151.482 105.86 151.482 105.897 151.482 105.933C151.628 106.042 151.792 106.151 151.956 106.261C152.411 106.588 152.902 106.898 153.467 106.952C154.249 107.043 155.269 105.969 155.815 105.35C156.015 105.132 156.179 104.895 156.306 104.641Z" fill="#B66B2E"></path>
            <path d="M147.914 127.359C148.023 129.215 147.186 129.27 146.64 130.872C145.293 134.895 154.923 132.874 157.162 132.474C158.454 132.237 160.53 132.055 160.293 130.253C160.111 128.87 158.8 128.433 158.818 126.721C158.837 125.156 159.619 123.572 159.638 122.025C159.656 119.331 157.344 118.839 155.196 118.766C153.43 118.693 151.391 119.094 149.644 119.768C145.894 121.242 147.732 124.391 147.914 127.359Z" fill="#D98037"></path>
            <path d="M149.935 98.1959C149.88 98.8512 149.771 99.7432 149.862 100.38C149.862 100.399 149.862 100.253 149.862 100.253C148.824 100.362 149.352 101.873 149.607 102.419C149.698 102.601 149.807 102.838 149.989 102.874C150.117 102.911 150.335 102.82 150.445 102.747C150.39 102.783 150.627 103.985 150.972 104.549C151.282 105.077 151.719 105.314 152.192 105.641C152.647 105.969 153.139 106.278 153.703 106.351C154.486 106.442 155.505 105.368 156.051 104.749C156.761 103.912 156.925 102.984 157.198 101.946C157.435 102.201 157.799 101.727 157.908 101.509C158.09 101.109 158.163 100.653 158.2 100.217C158.218 99.9071 158.254 98.7966 157.69 99.2881C157.872 98.0685 157.835 96.7942 157.508 95.6655C157.253 94.7553 156.834 93.8087 156.142 93.2626C155.141 92.4616 153.375 92.6072 152.156 93.0805C150.263 93.8451 150.08 96.3027 149.935 98.1959Z" fill="#D98037"></path>
            <path d="M139.358 137.226C138.521 136.916 137.756 136.534 136.992 136.06C135.972 135.442 134.37 135.023 133.77 133.821C133.023 132.274 135.008 131.018 136.173 130.763C137.501 130.472 139.158 130.781 140.378 131.2C141.434 131.546 142.544 131.71 143.673 131.728C144.237 131.728 144.801 131.71 145.347 131.655C145.803 131.6 146.567 131.2 146.567 131.2C146.567 131.2 147.678 131.437 148.005 131.418C149.662 131.382 150.881 130.727 152.065 130.472C153.958 130.071 154.886 129.998 156.78 129.944C157.344 129.926 158.837 129.926 159.419 129.707C159.674 129.616 160.02 129.416 160.02 129.416C160.02 129.416 160.348 129.653 160.53 129.689C161.385 129.798 162.641 129.289 163.479 128.961C165.827 128.051 168.357 125.538 170.688 126.776C173.072 128.032 169.486 132.11 168.084 133.002C166.045 134.295 164.17 135.642 162.041 136.716C159.965 137.772 157.908 138.991 155.76 139.774C150.008 141.831 144.492 139.119 139.358 137.226Z" fill="#8D8496"></path>
            <path d="M157.908 139.847C159.146 139.974 163.952 138.773 162.878 141.868C163.133 142.177 163.278 142.76 162.769 143.015C162.004 143.415 160.967 143.197 160.202 143.197C159.092 143.178 157.999 142.923 156.889 142.832C155.687 142.741 154.486 142.396 153.266 142.414C152.119 142.432 150.936 142.341 149.789 142.505C149.334 142.559 148.861 142.596 148.406 142.596C148.023 142.578 147.587 142.632 147.277 142.359C145.894 141.158 146.622 137.644 148.297 137.535C149.334 137.462 149.971 137.972 150.845 138.372C151.3 138.573 152.993 138.973 153.503 139.082C154.322 139.264 155.159 139.519 155.997 139.629C156.616 139.701 157.271 139.774 157.908 139.847Z" fill="#B66B2E"></path>
            <path d="M142.053 141.759C144.182 142.305 145.948 142.541 148.114 142.905C148.151 141.012 149.243 138.664 150.153 137.845C149.261 137.517 148.406 137.08 147.295 136.698C145.457 136.079 144.201 135.424 142.508 134.441C141.215 133.694 139.012 132.001 137.702 131.382C135.9 130.545 133.26 131.51 132.295 133.822C131.166 136.516 133.879 138.609 135.681 139.501C137.684 140.521 139.941 141.212 142.053 141.759Z" fill="#B7B0BE"></path>
            <path d="M158.782 140.83C158.709 139.72 157.945 138.008 157.107 137.499C156.197 136.934 155.123 138.19 154.322 138.755C152.848 139.811 151.246 140.575 149.607 141.103C148.096 141.595 146.749 142.268 145.184 142.468C144.619 142.541 144.055 142.505 143.491 142.632C143.072 142.723 142.69 142.996 142.289 143.197C141.87 143.397 141.488 143.488 141.179 143.943C140.869 144.416 140.815 145.399 141.124 145.763C140.778 146.055 140.796 146.51 140.833 146.655C140.942 147.11 141.033 147.256 141.343 147.456C141.579 147.62 141.725 147.966 142.034 148.002C142.307 148.021 142.69 147.93 142.963 147.839C143.964 147.475 144.911 146.983 145.912 146.619C147.113 146.182 148.315 145.654 149.48 145.09C150.244 144.726 151.045 144.544 151.828 144.18C152.611 143.816 153.284 143.16 154.085 142.905C155.687 142.377 157.253 141.722 158.782 140.83Z" fill="#D98037"></path>
            <path d="M172.472 130.945C172.89 128.997 172.381 126.794 170.524 126.649C168.685 126.503 166.373 127.759 164.899 129.252C162.132 132.055 159.801 134.822 156.543 136.879C156.015 137.207 155.123 137.753 155.287 137.899C155.687 138.281 156.361 139.41 156.652 139.92C156.998 140.484 157.107 141.103 157.326 141.758C158.272 141.303 159.219 140.884 160.002 140.502C162.041 139.555 164.079 138.827 166.009 137.553C168.357 136.006 171.762 134.24 172.472 130.945Z" fill="#B7B0BE"></path>
            <path d="M126.688 134.641C126.306 134.713 126.397 135.023 126.615 135.223C126.889 135.46 128.399 135.241 128.764 135.205C129.965 135.041 130.147 134.713 131.13 133.84C132.204 132.911 132.532 132.456 133.879 132.037C135.79 131.455 137.72 131.237 139.65 130.963C140.705 130.8 142.417 130.599 143.272 129.635C144.383 128.36 144.419 126.158 144.765 124.61C145.384 121.88 145.748 118.494 147.259 116.164C148.06 114.944 149.88 110.356 148.479 109.683C147.35 109.155 144.983 110.557 144.237 111.613C143.4 112.778 143.309 114.234 143.054 115.599C142.708 117.42 142.562 119.276 142.18 121.097C141.925 122.353 141.597 123.627 141.197 124.865C141.088 125.175 140.978 125.502 140.869 125.812C140.177 127.669 138.739 127.541 137.265 128.233C136.1 128.779 134.917 129.453 133.715 129.78C131.349 130.417 130.966 129.853 129.419 129.835C128.855 129.835 128.126 129.98 127.544 130.144C126.98 130.29 126.47 130.709 127.162 131.054C127.489 131.218 128.964 130.672 128.982 131.2C129 131.655 127.89 132.147 127.544 132.074C127.016 131.983 127.198 130.963 126.779 130.891C126.543 130.836 126.342 131.437 126.324 131.692C126.288 131.928 126.324 132.092 126.415 132.292C126.47 132.402 126.67 132.747 126.67 132.838C126.67 132.875 126.543 132.984 125.997 132.911C125.833 132.893 125.578 132.984 125.523 133.221C125.469 133.457 125.651 133.621 125.796 133.749C125.978 133.913 126.215 134.004 126.433 133.985C126.27 134.004 125.887 134.095 125.778 134.295C125.632 134.495 126.233 134.677 126.688 134.641Z" fill="#D98037"></path>
            <path d="M165.736 122.862C165.936 123.117 166.173 123.318 166.446 123.445C167.684 123.991 169.34 124.1 170.669 124.355C171.707 124.555 172.799 124.737 173.891 124.483C174.583 124.319 175.457 123.736 176.131 123.973C176.44 124.082 176.677 124.428 176.932 124.646C177.205 124.883 177.896 125.466 177.205 125.702C176.658 125.884 176.458 125.047 175.967 125.12C175.603 125.156 175.639 125.466 175.766 125.739C175.949 126.121 176.385 126.612 176.822 126.267C176.968 126.157 177.15 125.72 177.332 125.72C177.587 125.739 177.55 126.321 177.405 126.503C177.623 126.212 178.024 126.358 177.987 126.722C177.951 127.086 177.441 127.45 177.205 127.632C177.787 127.486 178.006 128.051 177.423 128.451C176.677 128.961 175.675 129.288 174.856 129.47C174.073 129.634 173.4 129.398 172.836 128.833C171.452 127.468 170.451 126.74 168.43 126.886C166.719 127.013 165.044 127.869 163.479 126.958C162.787 126.558 162.386 125.83 162.204 124.938C162.004 123.936 161.768 122.99 161.531 122.007C161.385 121.406 161.276 120.824 161.13 120.223C160.566 118.057 160.275 115.308 158.982 113.688C158.254 112.759 157.544 108.973 158.145 108.427C159 107.662 161.058 108.263 161.84 108.645C163.333 109.337 163.115 111.303 163.351 112.996C163.57 114.616 163.916 116.254 164.225 117.838C164.553 119.222 164.808 121.661 165.736 122.862Z" fill="#D98037"></path>
            <path d="M146.968 116.673C147.131 115.926 147.241 109.555 147.787 109.428C148.515 109.264 149.152 108.972 150.19 108.536C148.879 110.356 148.952 113.432 150.681 115.307C151.737 116.454 153.721 116.855 155.305 115.817C156.689 114.889 157.217 113.159 157.508 111.721C157.854 110.083 157.417 108.335 156.907 107.68C157.854 108.244 159.237 107.88 159.201 108.044C158.837 110.483 159.747 113.451 160.02 115.799C160.22 117.619 160.621 120.022 159.747 121.825C158.4 124.592 155.396 123.135 153.357 123.463C151.555 123.754 148.642 125.793 147.386 123.863C145.875 121.57 146.312 119.604 146.968 116.673Z" fill="#F1BAAF"></path>
            <path d="M151.337 98.7965L151.318 98.8147C150.536 99.1605 149.953 101.017 149.352 99.8887C148.824 98.8875 148.479 96.1569 149.025 95.1556C149.316 94.6095 149.352 94.3911 149.48 93.8267C149.607 93.226 150.135 93.3898 150.572 92.9894C151.064 92.5343 151.409 91.6604 152.01 91.5694C152.538 91.4966 152.665 91.7333 153.139 91.8971C153.885 90.1131 155.888 91.0961 156.834 91.6969C157.908 92.3704 158.545 93.5355 158.691 94.9736C158.764 95.6653 158.709 96.703 158.527 97.4129C158.345 98.1593 158.218 99.0513 157.726 99.3608C157.653 99.3608 157.508 99.0149 157.18 99.0149C157.235 98.1411 157.162 96.6848 156.907 95.8838C157.053 96.3207 156.67 97.3583 156.652 97.868C156.379 97.777 155.651 97.8498 155.36 97.8862C155.341 97.3037 155.341 96.7576 155.25 96.1933C155.196 96.7576 155.123 97.2673 154.977 97.8316C154.959 97.9045 153.339 98.1047 153.157 98.1411C152.52 98.2685 151.883 98.4506 151.337 98.7965Z" fill="#3D1C17"></path>
            <path d="M150.772 99.9798C151.355 99.725 151.846 99.6157 152.119 99.5611C152.574 99.4701 152.975 99.4701 153.266 99.4883C153.357 99.1242 153.412 98.7055 153.066 98.7966C152.793 98.8512 151.318 99.106 150.772 99.9798Z" fill="#3D1C17"></path>
            <path d="M156.943 99.2158C156.652 98.7971 156.306 98.5969 155.596 98.5241C155.433 98.5059 154.832 98.5969 154.668 98.7061C154.613 98.7425 154.686 98.9428 154.704 99.2158C154.704 99.2886 155.305 99.0884 155.942 99.0884C156.179 99.0884 156.689 99.1248 156.943 99.2158Z" fill="#3D1C17"></path>
            <path d="M152.939 100.308C152.884 100.253 152.738 100.362 152.684 100.399C152.52 100.472 152.338 100.508 152.156 100.526C152.028 100.544 151.883 100.563 151.755 100.544C151.646 100.526 151.391 100.508 151.573 100.726C151.628 100.799 151.719 100.854 151.792 100.872C152.065 100.945 152.392 100.872 152.666 100.69C152.738 100.654 153.011 100.435 152.939 100.308C152.957 100.326 152.957 100.308 152.939 100.308Z" fill="#3D1C17"></path>
            <path d="M154.759 100.035C154.814 99.962 154.959 100.053 155.014 100.053C155.178 100.071 155.36 100.071 155.523 100.053C155.651 100.035 155.797 100.017 155.924 99.962C156.033 99.9256 156.27 99.8345 156.106 100.089C156.051 100.18 155.96 100.253 155.888 100.29C155.633 100.417 155.287 100.453 155.032 100.344C154.959 100.308 154.686 100.18 154.759 100.035Z" fill="#3D1C17"></path>
            <path d="M153.102 128.506C152.92 128.542 152.92 128.724 153.048 128.797C153.175 128.87 153.394 128.815 153.521 128.706C153.576 128.651 153.667 128.579 153.612 128.488C153.557 128.397 153.212 128.488 153.102 128.506Z" fill="#B66B2E"></path>
            <path d="M153.703 102.728C153.63 102.728 153.576 102.673 153.576 102.6C153.576 102.527 153.63 102.473 153.703 102.473C153.867 102.473 154.14 102.418 154.34 102.364C154.085 101.599 153.921 100.98 154.049 100.052C154.067 99.9789 154.122 99.9243 154.195 99.9425C154.267 99.9607 154.322 100.015 154.304 100.088C154.176 101.017 154.34 101.599 154.613 102.4C154.631 102.473 154.613 102.527 154.54 102.564C154.322 102.655 153.921 102.728 153.703 102.728Z" fill="#3D1C17"></path>
            <path d="M153.685 104.275C153.448 104.275 153.212 104.202 153.011 104.057C152.957 104.02 152.939 103.929 152.975 103.875C153.011 103.82 153.102 103.802 153.157 103.838C153.721 104.239 154.413 103.766 154.613 103.62C154.668 103.565 154.759 103.583 154.795 103.638C154.85 103.693 154.832 103.784 154.777 103.82C154.431 104.13 154.031 104.275 153.685 104.275Z" fill="#3D1C17"></path>
            <path d="M151.901 91.4238C152.975 91.3328 154.067 91.2054 155.141 91.0416C155.378 89.9675 154.358 90.459 153.794 90.5136C153.175 90.5865 152.593 90.6775 151.974 90.6775C151.974 90.7685 151.865 91.4421 151.901 91.4238Z" fill="#F1BAAF"></path>
            <path d="M151.992 90.3318C151.956 90.3318 151.919 90.3136 151.901 90.2954C151.81 90.2044 151.682 90.1133 151.555 90.0041C151.3 89.8039 151.027 89.6036 150.881 89.2941C150.554 88.6024 150.699 87.8742 151.3 87.2735C152.156 86.4179 153.812 85.9446 154.595 86.3087C154.905 86.4543 155.05 86.7092 155.014 87.055C155.014 87.1279 154.941 87.1825 154.868 87.1825C154.795 87.1825 154.741 87.1097 154.741 87.0368C154.759 86.8184 154.668 86.6546 154.468 86.5635C153.849 86.2723 152.32 86.6364 151.482 87.4737C151.118 87.8378 150.754 88.4386 151.118 89.1849C151.227 89.4398 151.482 89.6036 151.701 89.7857C151.828 89.8767 151.956 89.9859 152.083 90.0951C152.138 90.1497 152.138 90.2408 152.083 90.2954C152.065 90.3136 152.028 90.3318 151.992 90.3318Z" fill="#3D1C17"></path>
            <path d="M155.032 90.1132C154.977 90.1132 154.941 90.095 154.905 90.0404C154.868 89.9676 154.905 89.8948 154.959 89.8584C155.687 89.4761 156.197 89.1484 156.142 88.311C156.124 87.9288 155.924 87.5829 155.651 87.4919C155.414 87.4008 155.196 87.5647 155.068 87.7103C155.014 87.7649 154.923 87.7649 154.868 87.7103C154.814 87.6557 154.814 87.5647 154.868 87.5101C155.232 87.1278 155.578 87.1642 155.742 87.2188C156.106 87.3462 156.379 87.7831 156.397 88.2928C156.452 89.2941 155.833 89.6945 155.068 90.095C155.087 90.1132 155.05 90.1132 155.032 90.1132Z" fill="#3D1C17"></path>
            <path d="M141.051 109.046C141.015 109.046 140.978 109.027 140.96 109.009C140.633 108.718 140.469 108.299 140.469 107.753C140.451 106.552 141.27 104.95 142.016 104.276C142.526 103.803 143.127 103.402 143.709 103.02C144.747 102.328 145.803 101.618 146.44 100.417C146.858 99.6158 146.804 98.833 146.767 98.0138C146.749 97.6134 146.713 97.2129 146.749 96.7942C146.968 93.6267 149.571 91.9519 152.065 91.697C152.138 91.697 152.21 91.7516 152.21 91.8245C152.21 91.8973 152.156 91.9701 152.083 91.9701C149.716 92.2067 147.223 93.8087 147.022 96.8124C146.986 97.2129 147.022 97.6134 147.04 98.0138C147.095 98.833 147.131 99.6886 146.676 100.562C146.021 101.818 144.929 102.547 143.855 103.257C143.29 103.639 142.708 104.021 142.198 104.494C141.488 105.15 140.724 106.661 140.724 107.771C140.724 108.245 140.869 108.59 141.124 108.827C141.179 108.882 141.179 108.954 141.142 109.027C141.124 109.027 141.088 109.046 141.051 109.046Z" fill="#3D1C17"></path>
            <path d="M138.576 125.976C138.557 125.976 138.539 125.976 138.521 125.957C137.574 125.429 138.321 123.718 138.557 123.209C139.213 121.843 138.958 120.988 138.612 119.914C138.448 119.404 138.284 118.858 138.211 118.202C138.066 116.983 138.302 116.091 139.067 115.199C140.032 114.052 140.505 113.196 140.997 111.704C141.015 111.631 141.088 111.594 141.16 111.631C141.233 111.649 141.27 111.722 141.233 111.795C140.724 113.324 140.25 114.179 139.249 115.363C138.539 116.2 138.321 117.019 138.466 118.166C138.539 118.803 138.703 119.313 138.867 119.823C139.194 120.915 139.486 121.843 138.794 123.3C138.357 124.21 138.048 125.393 138.648 125.721C138.703 125.757 138.739 125.83 138.703 125.885C138.648 125.957 138.612 125.976 138.576 125.976Z" fill="#3D1C17"></path>
            <path d="M158.163 98.7226C158.145 98.7226 158.145 98.7226 158.127 98.7226C158.054 98.7044 158.018 98.6315 158.036 98.5587C158.127 98.2492 158.254 97.9398 158.382 97.6485C158.509 97.3755 158.636 97.0842 158.727 96.7747C159.146 95.3002 158.782 93.4252 157.872 92.2965C157.471 91.805 156.78 91.2407 155.778 91.2953C155.706 91.2953 155.633 91.2407 155.633 91.1679C155.633 91.095 155.687 91.0222 155.76 91.0222C156.652 90.9676 157.453 91.3499 158.09 92.1145C159.073 93.3159 159.437 95.2638 159.001 96.8293C158.91 97.157 158.782 97.4483 158.655 97.7395C158.527 98.0308 158.4 98.3039 158.327 98.6133C158.272 98.6861 158.218 98.7226 158.163 98.7226Z" fill="#3D1C17"></path>
            <path opacity="0.3" d="M204.31 139.774L102.895 156.522V155.957L204.31 139.246V139.774Z" fill="#EAEAEA"></path>
            <path d="M131.203 151.843L102.895 156.521V155.957L131.203 151.297V151.843Z" fill="#EAEAEA"></path>
            <path d="M98.9634 158.87L98.2716 158.979V154.883L98.9634 154.774V158.87Z" fill="#EAEAEA"></path>
            <path d="M100.42 158.634L99.728 158.743V154.647L100.42 154.538V158.634Z" fill="#EAEAEA"></path>
            <path d="M132.168 151.479C132.168 152.098 131.731 152.662 131.185 152.753C130.638 152.844 130.202 152.426 130.202 151.807C130.202 151.188 130.638 150.623 131.185 150.532C131.731 150.441 132.168 150.878 132.168 151.479Z" fill="#EAEAEA"></path>
        </svg>